<svg xmlns="http://www.w3.org/2000/svg" viewBox="0 0 389.09 68.48"><defs><style>.cls-1{fill:#8c8c8c;}.cls-2{fill:#fff;}</style></defs><title>Asset 5</title><g id="Layer_2" data-name="Layer 2"><g id="Layer_1-2" data-name="Layer 1"><path class="cls-1" d="M.06,36.12c-.24-.3.36-3.54.42-7.62,0-.06.3-.06.3,0,.36,6.36,3.84,10.62,10.14,10.62,4.2,0,8.16-2.46,8.16-7.5,0-10-17.52-10-17.52-20.94A11,11,0,0,1,12.6,0,13.74,13.74,0,0,1,20,1.86c.42.24.6,2.34.6,6.12,0,.06-.24.06-.3,0-.72-4.56-3.72-7-8.16-7-4,0-7.44,2.58-7.44,6.54C4.74,17,22,16.86,22,28.32A11.51,11.51,0,0,1,10.38,40.08,15,15,0,0,1,.06,36.12Z"/><path class="cls-1" d="M53.75,15.9c0,.06-.36,0-.36,0-.36-2.1-1.92-3.78-6.9-3.78H42.24V31.56c0,5.7.42,6.9,4.79,7.26.07,0,.07.36-.06.36a62.48,62.48,0,0,0-13.43,0c-.12,0-.12-.36-.06-.36,4.2-.42,4.86-1.26,4.86-7.26V12.12h-4.5c-4.8,0-6.6,1.56-7.14,3.78,0,0-.36.06-.36,0a34.31,34.31,0,0,0,.36-4.56,12,12,0,0,0-.3-2.46s.36-.06.36,0c.3,1.56.3,2,7.08,2H46.49c6.72,0,6.84-.24,7.2-1.86,0-.06.3-.06.36,0a19,19,0,0,0-.42,4.08C53.63,13.8,53.69,15.3,53.75,15.9Z"/><path class="cls-1" d="M58,25.26c0-8,6.84-15.48,16.14-15.48,8.75,0,15.41,7,15.41,14.58,0,7.92-6.84,15.42-16.19,15.42C64.62,39.78,58,32.88,58,25.26Zm4-1.92c0,10.2,6.3,15.36,12.36,15.36,6.47,0,11.21-4.14,11.21-12.42,0-10.2-6.41-15.48-12.41-15.48C66.66,10.8,62,15,62,23.34Z"/><path class="cls-1" d="M123.59,31.56c0,2.22.12,6.3.36,8.22,0,.06-.3.18-.48,0l-22-23.64V31.56c0,5.16.48,6.9,4.86,7.26,0,0,.06.36-.06.36a41.56,41.56,0,0,0-5.1-.36,36.19,36.19,0,0,0-5.58.36c-.06,0-.06-.36,0-.36,4.2-.42,4.8-1.8,4.8-7.26V16.5c0-2.34-3.72-5.58-5.94-5.82-.06-.06-.18-.3-.06-.36a51,51,0,0,0,7.14.36l20.93,22.5V18c0-5.52-.66-6.84-4.8-7.26-.06-.06-.12-.36,0-.42a28.22,28.22,0,0,0,5.46.36,40.87,40.87,0,0,0,5.16-.36c.18,0,0,.3-.06.42-4.26.3-4.68,2.16-4.68,7.26Z"/><path class="cls-1" d="M154.07,39.12c-1.62,0-4.38-.3-7.62-.3-4.44,0-9.59.06-12.95.36-.12,0-.06-.36,0-.36,4.74-.42,5.22-1.2,5.22-7.26V18c0-6.06-.42-6.9-5.16-7.26-.06-.06-.18-.42-.06-.42,3.66.36,8.34.36,12.78.36,3.05,0,6-.18,8.33-.36a19.75,19.75,0,0,0-.18,2.7c0,.48,0,1.68.06,2.16-.06.06-.42.12-.42-.06-.24-2.22-1.14-3.3-7-3.3h-4.15a45.48,45.48,0,0,0-.29,5.94V23.7h3.29c5.28,0,5.64-.42,6.06-2.46,0,0,.3,0,.36.06a20.72,20.72,0,0,0-.3,3.6c0,.54.06,2.28.06,2.7,0,.06-.36,0-.36-.06-.42-2.46-.78-2.94-5.82-2.94h-3.29V31c0,6.24.6,6.72,2.7,6.72h2.28c7,0,7.19-1.26,7.85-4.26a.49.49,0,0,1,.42.06c-.18,1.14-.6,4-.9,4.86C154.79,38.94,154.61,39.12,154.07,39.12Z"/><path class="cls-1" d="M192.77,21.24a24.18,24.18,0,0,1-4.86.42,19.59,19.59,0,0,1-2.7-.06V29c0,9.12,0,9.48,5.76,9.9.06.06.12.36,0,.36a61.22,61.22,0,0,0-7.26-.48,70.35,70.35,0,0,0-8.64.48c-.12,0,0-.3.06-.36,5.58-.54,5.82-.42,5.82-9.9V11c0-7.14-.3-9.42-3.84-9.42a10.82,10.82,0,0,0-2.22.3c-.06,0-.12-.18,0-.24,2.4-.78,8.1-1,14.52-1,8.28,0,15.06,2.52,15.06,8.94,0,3.3-2,8-8.16,10.62,3.12,9,12.54,19.68,19.26,19.68.06,0,.12.3-.06.3C202.07,40.2,195.35,30.84,192.77,21.24Zm-7-19.56c-.36,1.2-.54,4.14-.54,8.76V20.76c1.14.06,1.56.06,2.64.06,9.06,0,12.24-3.42,12.24-8.64,0-8.52-5.46-10.68-11.46-10.68A23.2,23.2,0,0,0,185.75,1.68Z"/><path class="cls-1" d="M214.31,25.26c0-8,6.84-15.48,16.14-15.48,8.76,0,15.42,7,15.42,14.58,0,7.92-6.84,15.42-16.2,15.42C221,39.78,214.31,32.88,214.31,25.26Zm4-1.92c0,10.2,6.3,15.36,12.36,15.36,6.48,0,11.22-4.14,11.22-12.42,0-10.2-6.42-15.48-12.42-15.48C223,10.8,218.33,15,218.33,23.34Z"/><path class="cls-1" d="M258.59,38.82a62.56,62.56,0,0,0-7.2.36c-.12,0-.06-.3,0-.36,4.2-.42,4.8-1.2,4.8-7.26V18c0-6.06-.66-6.84-4.86-7.32-.06,0-.06-.3.06-.36a40.7,40.7,0,0,0,6.48.36c1.08,0,3.9-.18,5.34-.18,4.74,0,9.12,2.22,9.12,6.48,0,2.76-2.94,5.82-6.84,6.42v.12c5.64-.12,9.48,2.88,9.48,6.9,0,4.8-4.44,8.58-10.86,8.58C262.67,39,259.67,38.82,258.59,38.82Zm2.88-15.3c5.7,0,7.08-2.16,7.08-5.64,0-4.8-2.46-6.48-6.42-6.48a8.57,8.57,0,0,0-1.74.18,33.35,33.35,0,0,0-.3,6.42V31.74c0,5.22.06,6.3,3.54,6.3,5.22,0,7.44-2,7.44-6.48,0-4.62-3.12-8.16-9.6-7.74C261.41,23.82,261.41,23.52,261.47,23.52Z"/><path class="cls-1" d="M301.07,39.12c-1.62,0-4.38-.3-7.62-.3-4.44,0-9.6.06-13,.36-.12,0-.06-.36,0-.36,4.74-.42,5.22-1.2,5.22-7.26V18c0-6.06-.42-6.9-5.16-7.26-.06-.06-.18-.42-.06-.42,3.66.36,8.34.36,12.78.36,3.06,0,6-.18,8.34-.36a19.75,19.75,0,0,0-.18,2.7c0,.48,0,1.68.06,2.16-.06.06-.42.12-.42-.06-.24-2.22-1.14-3.3-7-3.3h-4.14a43.29,43.29,0,0,0-.3,5.94V23.7h3.3c5.28,0,5.64-.42,6.06-2.46,0,0,.3,0,.36.06a20.72,20.72,0,0,0-.3,3.6c0,.54.06,2.28.06,2.7,0,.06-.36,0-.36-.06-.42-2.46-.78-2.94-5.82-2.94h-3.3V31c0,6.24.6,6.72,2.7,6.72h2.28c7,0,7.2-1.26,7.86-4.26a.49.49,0,0,1,.42.06c-.18,1.14-.6,4-.9,4.86C301.79,38.94,301.61,39.12,301.07,39.12Z"/><path class="cls-1" d="M319.31,26.1a11.93,11.93,0,0,1-2.1-.06v5.52c0,5.76.48,6.9,4.8,7.26.06,0,.12.36,0,.36-1.38-.18-4.38-.36-6.24-.36a64.8,64.8,0,0,0-7.32.36c-.12,0,0-.36.06-.36,4.14-.42,4.86-1.2,4.86-7.26V18c0-5.58-1.2-6.78-3.36-6.78a12.48,12.48,0,0,0-1.8.24c-.06,0,0-.3.12-.36,1.86-.6,6.9-.78,11.7-.78,7.5,0,11.64,2.4,11.64,7,0,2.94-2.1,5.7-5.52,7.2,2.22,6.48,7.68,14.64,13.32,15.06.06,0,.12.3,0,.3-9.36,0-14.7-6.9-16.62-14.1A15.72,15.72,0,0,1,319.31,26.1Zm-1.8-14.76a32.05,32.05,0,0,0-.3,6.24V25.2c.84.06,1.2.06,2,.06,6.12,0,8.46-2.46,8.46-6.78,0-5.28-3-7.26-8.28-7.26A10.32,10.32,0,0,0,317.51,11.34Z"/><path class="cls-1" d="M367,15.9c0,.06-.36,0-.36,0-.36-2.1-1.92-3.78-6.9-3.78h-4.26V31.56c0,5.7.42,6.9,4.8,7.26.06,0,.06.36-.06.36-1.38-.18-4.38-.36-6.24-.36a62.56,62.56,0,0,0-7.2.36c-.12,0-.12-.36-.06-.36,4.2-.42,4.86-1.26,4.86-7.26V12.12H347c-4.8,0-6.6,1.56-7.14,3.78,0,0-.36.06-.36,0a34.31,34.31,0,0,0,.36-4.56,12,12,0,0,0-.3-2.46s.36-.06.36,0c.3,1.56.3,2,7.08,2h12.66c6.72,0,6.84-.24,7.2-1.86,0-.06.3-.06.36,0a19,19,0,0,0-.42,4.08C366.83,13.8,366.89,15.3,367,15.9Z"/><path class="cls-1" d="M372.47,36.6c-.12-.18.18-3.36.24-6.42,0-.06.36-.06.36-.06.36,4.8,2.76,8.58,7.56,8.58,3.36,0,5.7-2.1,5.7-5.22,0-7.5-12.78-7.5-12.78-15.72a8.34,8.34,0,0,1,8.52-8,9.72,9.72,0,0,1,5.52,1.62c.3.18.6,2.58.6,5.4,0,.06-.36,0-.36-.06-.54-3.42-2.76-5.94-6.12-5.94-3,0-5.22,1.56-5.22,4.56,0,7.2,12.6,7,12.6,15.66a8.65,8.65,0,0,1-8.88,8.76A11.37,11.37,0,0,1,372.47,36.6Z"/><path class="cls-2" d="M4,63H2.43v5.24H1.19V55.82H4.27c2.5,0,4.07,1.26,4.07,3.49C8.34,61.76,6.52,63,4,63Zm.2-6.08H2.43v5H4c1.89,0,3.05-.82,3.05-2.55S6.07,56.92,4.18,56.92Z"/><path class="cls-2" d="M26.19,68.37l-1.6-4.14H19.15l-1.53,4H16.36l4.9-12.49h1.28L27.4,68.1ZM21.87,57.21,19.6,63.13h4.57Z"/><path class="cls-2" d="M37.64,68.24V55.82h1.24V68.24Z"/><path class="cls-2" d="M58.52,68.24,51.26,57.78V68.24H50.09V55.82h1.17L58.3,66V55.82h1.17V68.24Z"/><path class="cls-2" d="M74.77,56.94v11.3H73.55V56.94h-4V55.82h9.15l.18,1.12Z"/><path class="cls-2" d="M88.88,68.24V55.82h1.25V68.24Z"/><path class="cls-2" d="M109.76,68.24l-7.25-10.46V68.24h-1.17V55.82h1.17l7,10.14V55.82h1.17V68.24Z"/><path class="cls-2" d="M127.06,68.48c-3.67,0-5.83-2.63-5.83-6.43s2.25-6.47,5.72-6.47a6.09,6.09,0,0,1,3.68,1.09l-.22,1.27a5.44,5.44,0,0,0-3.47-1.24c-2.78,0-4.43,2.13-4.43,5.33s1.65,5.31,4.57,5.31a5.18,5.18,0,0,0,2.85-.77V62.84h-3l-.18-1.12h4.39v5.5A7.34,7.34,0,0,1,127.06,68.48Z"/><path class="cls-2" d="M144.77,68.39a6.9,6.9,0,0,1-3.29-.78l.18-1.26a6,6,0,0,0,3.17.94,2.28,2.28,0,0,0,2.55-2.23c0-1.23-.61-1.84-2.5-2.67-2.38-1-3.24-1.84-3.24-3.6s1.51-3.12,3.56-3.12a5.42,5.42,0,0,1,2.74.65l-.18,1.25a4.59,4.59,0,0,0-2.61-.8,2,2,0,0,0-2.27,1.95c0,1.13.6,1.67,2.5,2.52,2.31,1,3.25,1.91,3.25,3.73C148.63,67.09,147,68.39,144.77,68.39Z"/><path class="cls-2" d="M179.71,68.37l-1.6-4.14h-5.44l-1.53,4h-1.26l4.9-12.49h1.28l4.86,12.35Zm-4.32-11.16-2.27,5.92h4.58Z"/><path class="cls-2" d="M199.46,68.24,192.2,57.78V68.24H191V55.82h1.17l7,10.14V55.82h1.17V68.24Z"/><path class="cls-2" d="M214.81,68.24h-3.33V55.82h3.38c4.15,0,6.47,2.5,6.47,6.19S218.81,68.24,214.81,68.24Zm.07-11.3h-2.16V67.13h2.16c3.15,0,5.17-1.7,5.17-5.1S218,56.94,214.88,56.94Z"/><path class="cls-2" d="M247,68.24h-3.33V55.82h3.39c4.14,0,6.46,2.5,6.46,6.19S251,68.24,247,68.24Zm.07-11.3h-2.16V67.13h2.16c3.16,0,5.17-1.7,5.17-5.1S250.18,56.94,247.08,56.94Z"/><path class="cls-2" d="M272.2,68.1l-1.27.27-4-5.62h-1.6v5.49h-1.24V55.82h3.17c2.43,0,4,1.22,4,3.38a3.34,3.34,0,0,1-2.95,3.39Zm-5-11.18H265.3v4.77H267c1.83,0,3-.83,3-2.41S269,56.92,267.17,56.92Z"/><path class="cls-2" d="M290.9,68.37l-1.61-4.14h-5.43l-1.53,4h-1.26L286,55.75h1.28L292.1,68.1Zm-4.32-11.16-2.27,5.92h4.57Z"/><path class="cls-2" d="M313.24,68.26h-1.08l-3.61-10.73L305,68.26h-1L300.2,56l1.22-.27,3.1,10.64,3.42-10.51h1.28l3.46,10.51,3.06-10.51H317Z"/><path class="cls-2" d="M327.34,68.24V55.82h1.25V68.24Z"/><path class="cls-2" d="M348.23,68.24,341,57.78V68.24H339.8V55.82H341L348,66V55.82h1.17V68.24Z"/><path class="cls-2" d="M365.52,68.48c-3.67,0-5.83-2.63-5.83-6.43s2.25-6.47,5.72-6.47a6.07,6.07,0,0,1,3.68,1.09l-.22,1.27a5.44,5.44,0,0,0-3.47-1.24c-2.78,0-4.43,2.13-4.43,5.33s1.65,5.31,4.57,5.31a5.18,5.18,0,0,0,2.85-.77V62.84h-3l-.18-1.12h4.39v5.5A7.34,7.34,0,0,1,365.52,68.48Z"/><path class="cls-2" d="M383.23,68.39a6.9,6.9,0,0,1-3.29-.78l.18-1.26a6,6,0,0,0,3.17.94,2.27,2.27,0,0,0,2.55-2.23c0-1.23-.61-1.84-2.5-2.67-2.37-1-3.24-1.84-3.24-3.6s1.51-3.12,3.57-3.12a5.38,5.38,0,0,1,2.73.65l-.18,1.25a4.59,4.59,0,0,0-2.61-.8,2,2,0,0,0-2.27,1.95c0,1.13.6,1.67,2.51,2.52,2.3,1,3.24,1.91,3.24,3.73C387.09,67.09,385.41,68.39,383.23,68.39Z"/></g></g></svg>