<svg xmlns="http://www.w3.org/2000/svg" width="22" height="24" viewBox="0 0 22 24">
    <g fill="#B5B8BD" fill-rule="nonzero">
        <path d="M1.532 7.73H1.47C.659 7.73 0 8.365 0 9.14v6.14c0 .778.66 1.411 1.469 1.411h.064c.81 0 1.47-.635 1.47-1.41V9.14C3 8.364 2.34 7.73 1.532 7.73zM3.865 17.425c0 .713.607 1.294 1.35 1.294h1.443v3.316c0 .779.662 1.412 1.469 1.412h.063c.81 0 1.47-.634 1.47-1.412V18.72h2.017v3.316c0 .779.664 1.412 1.471 1.412h.062c.81 0 1.47-.634 1.47-1.412V18.72h1.444c.742 0 1.349-.581 1.349-1.294V7.73H3.865v9.695zM14.104 2.06L15.249.362a.228.228 0 0 0-.071-.324.248.248 0 0 0-.337.07l-1.188 1.756a8.028 8.028 0 0 0-2.938-.548 8.038 8.038 0 0 0-2.939.548L6.59.107a.25.25 0 0 0-.338-.069.228.228 0 0 0-.072.324L7.327 2.06c-2.068.973-3.462 2.806-3.462 4.91 0 .128.008.256.02.382h13.661c.012-.126.02-.254.02-.383 0-2.103-1.396-3.936-3.462-4.91zM7.548 5.1a.644.644 0 0 1-.658-.63c0-.35.295-.63.658-.63.365 0 .658.28.658.63s-.295.63-.658.63zm6.334 0a.644.644 0 0 1-.658-.63c0-.35.294-.63.658-.63.364 0 .656.28.656.63s-.292.63-.656.63zM19.753 7.73h-.061c-.81 0-1.471.635-1.471 1.41v6.14c0 .778.663 1.411 1.471 1.411h.062c.81 0 1.469-.635 1.469-1.41V9.14c0-.776-.66-1.41-1.47-1.41z"/>
    </g>
</svg>
