<svg xmlns="http://www.w3.org/2000/svg" width="19" height="24" viewBox="0 0 19 24">
    <path fill="#0EBAC5" fill-rule="nonzero" d="M12.755 3.614c.894-.958 1.5-2.288 1.334-3.614-1.29.046-2.851.757-3.777 1.715-.83.847-1.555 2.203-1.362 3.503 1.439.097 2.908-.648 3.805-1.604zm2.745 9.159c-.028-2.974 2.354-4.402 2.46-4.47-1.34-2.02-3.425-2.296-4.167-2.327-1.776-.186-3.462 1.075-4.363 1.075-.898 0-2.287-1.05-3.76-1.022C3.736 6.06 1.952 7.188.958 8.974c-2.01 3.594-.515 8.918 1.444 11.834.958 1.427 2.099 3.028 3.596 2.97 1.446-.058 1.991-.962 3.735-.962 1.745 0 2.234.962 3.76.933 1.554-.03 2.537-1.455 3.487-2.886 1.099-1.656 1.552-3.258 1.578-3.339-.034-.02-3.025-1.196-3.057-4.751z"/>
</svg>
