<svg xmlns="http://www.w3.org/2000/svg" width="18" height="20" viewBox="0 0 18 20">
    <path fill="#FFF" fill-rule="nonzero" d="M2.34 1.18l2.5 1.44-1.02 1.74-2.5-1.44 1.02-1.74zm12.22 12.46c1.22 0 2.22-1.06 2.22-2.22 0-1.46-2.22-4.44-2.22-4.44s-2.22 2.98-2.22 4.44c0 1.16.98 2.22 2.22 2.22zM.12 17.54c0-.92.74-1.66 1.68-1.66h14.44c.92 0 1.68.74 1.68 1.66 0 .92-.74 1.66-1.68 1.66H1.78c-.92 0-1.66-.74-1.66-1.66zM6.36 0l6.38 3.66 2.88 1.66-2.76.74-4.56 7.9L.8 9.62 6.36 0zm.66 2.72L3.4 8.96l5.68.16 2.26-3.9-4.32-2.5z"/>
</svg>
