<svg xmlns="http://www.w3.org/2000/svg" width="21" height="16" viewBox="0 0 21 16">
    <g fill="#000" fill-rule="nonzero" opacity=".596">
        <path d="M10.313 4.383a4.355 4.355 0 0 0-4.34 4.34 4.355 4.355 0 0 0 4.34 4.34 4.355 4.355 0 0 0 4.34-4.34 4.355 4.355 0 0 0-4.34-4.34zm0 7.713A3.379 3.379 0 0 1 6.94 8.723a3.379 3.379 0 0 1 3.373-3.373 3.379 3.379 0 0 1 3.373 3.373 3.393 3.393 0 0 1-3.373 3.373z"/>
        <path d="M19.358 2.47h-5.35L13.192.58a.918.918 0 0 0-.86-.559H8.315a.94.94 0 0 0-.86.56L6.64 2.47h-5.35c-.644 0-1.16.515-1.16 1.16v10.656c0 .645.516 1.16 1.16 1.16h18.069c.644 0 1.16-.515 1.16-1.16V3.631c0-.645-.516-1.16-1.16-1.16zm.193 11.817a.193.193 0 0 1-.193.194H1.289a.193.193 0 0 1-.193-.194V3.631c0-.108.086-.193.193-.193h5.994L8.336.967h3.953l1.053 2.47h5.994c.108 0 .194.086.194.194v10.656h.021z"/>
    </g>
</svg>
