<svg xmlns="http://www.w3.org/2000/svg" width="16" height="13" viewBox="0 0 16 13">
    <path fill="#FFF" fill-rule="nonzero" d="M7.75 5.25C9 5.25 10 6.25 10 7.5S9 9.75 7.75 9.75 5.5 8.75 5.5 7.5s1-2.25 2.25-2.25zm0-1C5.95 4.25 4.5 5.7 4.5 7.5s1.45 3.25 3.25 3.25S11 9.3 11 7.5 9.55 4.25 7.75 4.25zM5.8 1h3.9l.85 1.725c.075.175.25.275.45.275h2.8c.4 0 .7.3.7.7v7.6c0 .4-.3.7-.7.7H1.7c-.4 0-.7-.3-.7-.7V3.7c0-.4.3-.7.7-.7h2.8a.548.548 0 0 0 .45-.275L5.8 1zm-.3-1c-.2 0-.375.15-.45.275L4.2 2H1.7C.775 2 0 2.775 0 3.7v7.6c0 .925.775 1.7 1.7 1.7h12.1c.925 0 1.7-.775 1.7-1.7V3.7c0-.925-.775-1.7-1.7-1.7h-2.5L10.425.275A.472.472 0 0 0 9.975 0H5.5z"/>
</svg>
