<svg xmlns="http://www.w3.org/2000/svg" width="20" height="20" viewBox="0 0 20 20">
    <path fill="#FFF" fill-rule="nonzero" d="M5 19.583c0 .25-.167.417-.417.417H.417C.167 20 0 19.833 0 19.583v-4.166c0-.25.167-.417.417-.417.25 0 .416.167.416.417v3.75h3.75c.25 0 .417.166.417.416zm-5-15V.417C0 .167.167 0 .417 0h4.166C4.833 0 5 .167 5 .417c0 .25-.167.416-.417.416H.833v3.75c0 .25-.166.417-.416.417C.167 5 0 4.833 0 4.583zm20 10.834v4.166c0 .25-.167.417-.417.417h-4.166c-.25 0-.417-.167-.417-.417 0-.25.167-.416.417-.416h3.75v-3.75c0-.25.166-.417.416-.417.25 0 .417.167.417.417zm0-15v4.166c0 .25-.167.417-.417.417-.25 0-.416-.167-.416-.417V.833h-3.75c-.25 0-.417-.166-.417-.416 0-.25.167-.417.417-.417h4.166c.25 0 .417.167.417.417zM4.167 4.167h11.666v11.666H4.167V4.167zM2.5 3.333v13.334c0 .458.375.833.833.833h13.334a.836.836 0 0 0 .833-.833V3.333a.836.836 0 0 0-.833-.833H3.333a.836.836 0 0 0-.833.833z"/>
</svg>
