<svg xmlns="http://www.w3.org/2000/svg" width="21" height="21" viewBox="0 0 21 21">
    <g fill="#B5B8BD" fill-rule="nonzero">
        <path d="M11.735 15.119c-.283.085-.71.213-1.24.213-.955 0-1.837-.26-2.621-.774a4.986 4.986 0 0 1-1.79-2.02L1.617 4.71l-.302.54C.445 6.807.003 8.571.003 10.492c0 2.61.862 4.921 2.562 6.866 1.7 1.943 3.843 3.122 6.372 3.503l.236.036 3.498-6.053-.936.275z"/>
        <path d="M5.763 9.18c.263-1.031.854-1.909 1.757-2.608.848-.657 1.821-.976 2.975-.976h9.326l-.309-.527c-.88-1.502-2.12-2.704-3.79-3.675A10.267 10.267 0 0 0 10.494 0C8.863 0 7.318.352 5.904 1.046c-1.508.74-2.789 1.783-3.703 3.018l-.14.19 3.496 5.729.206-.803z"/>
        <path d="M20.19 6.539l-.095-.2h-6.958l.597.597c1.033 1.033 1.601 2.295 1.601 3.556a4.894 4.894 0 0 1-.864 2.796l-4.468 7.701.614-.006c2.856-.027 5.325-1.075 7.338-3.114 2.011-2.04 3.032-4.522 3.032-7.377 0-1.038-.139-2.566-.797-3.953z"/>
        <path d="M6.298 10.492c0 2.275 1.922 4.197 4.197 4.197 2.275 0 4.197-1.922 4.197-4.197 0-2.275-1.922-4.197-4.197-4.197-2.275 0-4.197 1.922-4.197 4.197z"/>
    </g>
</svg>
