<?xml version="1.0" encoding="UTF-8"?>
<svg width="21px" height="21px" viewBox="0 0 21 21" version="1.1" xmlns="http://www.w3.org/2000/svg" xmlns:xlink="http://www.w3.org/1999/xlink">
    <!-- Generator: sketchtool 45.1 (43504) - http://www.bohemiancoding.com/sketch -->
    <title>67EB0D6D-5F31-4BF0-AEE6-F57F03A0150D</title>
    <desc>Created with sketchtool.</desc>
    <defs></defs>
    <g id="Icons" stroke="none" stroke-width="1" fill="none" fill-rule="evenodd">
        <g transform="translate(-522.000000, -49.000000)" id="Chrome-Coloured" fill-rule="nonzero">
            <g transform="translate(522.000000, 49.000000)">
                <path d="M10.4522281,0.00196875 C10.4522281,0.00196875 16.6308947,-0.276117187 19.9055848,5.93430469 C18.1756433,5.93430469 9.92694152,5.93430469 9.92694152,5.93430469 C9.92694152,5.93430469 8.0424269,5.87228906 6.43594737,8.15915625 C5.97255556,9.11695312 5.47838012,10.1057578 6.03445029,12.0521953 C5.2312924,10.6929375 1.77108187,4.66757812 1.77108187,4.66757812 C1.77108187,4.66757812 4.21183041,0.249046875 10.4522281,0.00196875 Z" id="Shape" fill="#E16B5A"></path>
                <path d="M10.4522281,0.00196875 C10.3456316,0.006234375 10.2428012,0.0146015625 10.1383333,0.0211640625 C11.8065439,0.142898437 16.3135614,0.942703125 18.9455614,5.93430469 C19.3519708,5.93430469 19.6830585,5.93430469 19.9052573,5.93430469 C16.630731,-0.27628125 10.4522281,0.00196875 10.4522281,0.00196875 Z" id="Shape" fill="#CC6152"></path>
                <path d="M19.5839942,15.7700156 C19.5839942,15.7700156 16.7348713,21.2600391 9.71980702,20.9899922 C10.5851871,19.4919375 14.7103567,12.3478359 14.7103567,12.3478359 C14.7103567,12.3478359 15.7062398,10.7464219 14.5302398,8.21165625 C13.9324152,7.33129687 12.1214211,6.40860937 10.1578187,5.91675 C11.7369532,5.901 19.8859357,5.91773437 19.8859357,5.91773437 C19.8859357,5.91773437 22.4907544,10.2416016 19.5839942,15.7700156 Z" id="Shape" fill="#FFD464"></path>
                <path d="M19.8857719,5.91789844 C19.8857719,5.91789844 15.7291637,5.90936719 12.7778655,5.91035156 C15.6091404,5.91100781 19.0005789,5.91789844 19.0005789,5.91789844 C19.0005789,5.91789844 21.6055614,10.2416016 18.6988012,15.7700156 C18.6988012,15.7700156 16.0880877,20.7909844 9.71964327,20.9899922 L9.71964327,20.9899922 C16.7347076,21.2600391 19.5839942,15.7700156 19.5839942,15.7700156 C22.4907544,10.2416016 19.8857719,5.91789844 19.8857719,5.91789844 Z" id="Shape" fill="#F2C95F"></path>
                <path d="M1.36450877,15.8116875 C1.36450877,15.8116875 -1.96454386,10.5984375 1.77714035,4.65740625 C2.6418655,6.15611719 6.76474269,13.3015313 6.76474269,13.3015313 C6.76474269,13.3015313 7.65288304,14.9647969 10.4360175,15.2135156 C11.4969064,15.1360781 12.6005322,15.0702891 14.0082281,13.615875 C13.2320877,14.9912109 9.74387719,20.9998359 9.74387719,20.9998359 C9.74387719,20.9998359 4.69765497,21.0940078 1.36450877,15.8116875 Z" id="Shape" fill="#74B340"></path>
                <ellipse id="Oval" fill="#FFFFFF" cx="10.4271754" cy="10.5853125" rx="4.74853801" ry="4.7578125"></ellipse>
                <ellipse id="Oval" fill="#2995CC" cx="10.425538" cy="10.5853125" rx="3.76608187" ry="3.7734375"></ellipse>
                <path d="M10.4265205,6.81269531 C10.3515263,6.81269531 10.2773509,6.81548438 10.2036667,6.81975 C12.1797135,6.93541406 13.746731,8.5771875 13.746731,10.5859688 C13.746731,12.5950781 12.1797135,14.2370156 10.2036667,14.3526797 C10.2775146,14.3567813 10.3516901,14.3597344 10.4265205,14.3597344 C12.5062164,14.3597344 14.1926023,12.6700547 14.1926023,10.5859688 C14.1926023,8.50221094 12.5062164,6.81269531 10.4265205,6.81269531 Z" id="Shape" fill="#268CBF"></path>
            </g>
        </g>
    </g>
</svg>