<svg xmlns="http://www.w3.org/2000/svg" width="21" height="21" viewBox="0 0 21 21">
    <g fill="none" fill-rule="nonzero">
        <path fill="#E16B5A" d="M10.452.002s6.179-.278 9.454 5.932h-9.98s-1.884-.062-3.49 2.225c-.463.958-.958 1.947-.402 3.893a1490.31 1490.31 0 0 1-4.263-7.384S4.211.249 10.452.002z"/>
        <path fill="#CC6152" d="M10.452.002c-.106.004-.21.013-.314.02 1.669.12 6.176.92 8.808 5.912h.96C16.63-.276 10.451.002 10.451.002z"/>
        <path fill="#FFD464" d="M19.584 15.77s-2.85 5.49-9.864 5.22l4.99-8.642s.996-1.602-.18-4.136c-.598-.88-2.409-1.803-4.372-2.295 1.579-.016 9.728 0 9.728 0s2.605 4.325-.302 9.853z"/>
        <path fill="#F2C95F" d="M19.886 5.918s-4.157-.009-7.108-.008c2.831.001 6.223.008 6.223.008s2.605 4.324-.302 9.852c0 0-2.61 5.021-8.98 5.22 7.016.27 9.865-5.22 9.865-5.22 2.907-5.528.302-9.852.302-9.852z"/>
        <path fill="#74B340" d="M1.365 15.812s-3.33-5.214.412-11.155l4.988 8.645s.888 1.663 3.671 1.912c1.06-.078 2.165-.144 3.572-1.598C13.232 14.99 9.744 21 9.744 21s-5.046.094-8.38-5.188z"/>
        <ellipse cx="10.427" cy="10.585" fill="#FFF" rx="4.749" ry="4.758"/>
        <ellipse cx="10.426" cy="10.585" fill="#2995CC" rx="3.766" ry="3.773"/>
        <path fill="#268CBF" d="M10.427 6.813c-.075 0-.15.002-.223.007a3.77 3.77 0 0 1 3.543 3.766 3.77 3.77 0 0 1-3.543 3.767 3.77 3.77 0 0 0 3.989-3.767 3.77 3.77 0 0 0-3.766-3.773z"/>
    </g>
</svg>
