<svg xmlns="http://www.w3.org/2000/svg" width="18" height="8" viewBox="0 0 18 8">
    <g fill="#656565" fill-rule="nonzero">
        <path d="M3.563 0c-.126 0-.376.125-.5.25L.187 3.125c-.25.25-.25.625 0 1l2.75 2.75c.126.125.25.25.5.25.126 0 .376-.125.5-.25.25-.25.25-.625 0-1l-2.25-2.25 2.5-2.5c.25-.25.25-.625 0-1C3.938 0 3.688 0 3.563 0zM13.688 0c-.126 0-.376.125-.5.25-.25.25-.25.625 0 1l2.5 2.5-2.376 2.125c-.25.25-.25.625 0 1 .126.125.25.25.5.25.126 0 .376-.125.5-.25l2.75-2.75c.25-.25.25-.625 0-1L14.188.25c-.25-.25-.374-.25-.5-.25zM10.813 1c-.126 0-.376.125-.5.25L6.186 5.375c-.25.25-.25.625 0 1 .125.125.25.25.5.25.125 0 .375-.125.5-.25l4.125-4.125c.25-.25.25-.625 0-1-.124-.25-.374-.25-.5-.25z"/>
    </g>
</svg>
