<svg xmlns="http://www.w3.org/2000/svg" width="18" height="8" viewBox="0 0 18 8">
    <g fill="#FFF" fill-rule="nonzero">
        <path d="M3.75.625c-.125 0-.375.125-.5.25L.375 3.75c-.25.25-.25.625 0 1l2.75 2.75c.125.125.25.25.5.25.125 0 .375-.125.5-.25.25-.25.25-.625 0-1l-2.25-2.25 2.5-2.5c.25-.25.25-.625 0-1-.25-.125-.5-.125-.625-.125zM14.375.625c-.125 0-.375.125-.5.25-.25.25-.25.625 0 1l2.5 2.5L14 6.5c-.25.25-.25.625 0 1 .125.125.25.25.5.25.125 0 .375-.125.5-.25l2.75-2.75c.25-.25.25-.625 0-1L14.875.875c-.25-.25-.375-.25-.5-.25zM11.25 1.625c-.125 0-.375.125-.5.25L6.625 6c-.25.25-.25.625 0 1 .125.125.25.25.5.25.125 0 .375-.125.5-.25l4.125-4.125c.25-.25.25-.625 0-1-.125-.25-.375-.25-.5-.25z"/>
    </g>
</svg>
