<svg xmlns="http://www.w3.org/2000/svg" width="28" height="24" viewBox="0 0 28 24">
    <path fill="#353535" fill-rule="evenodd" d="M24.391 20.276h-9.99v2.058h3.225a.537.537 0 1 1 0 1.074H10.1a.537.537 0 1 1 0-1.074h3.226v-2.058H3.333c-1.481 0-2.687-1.364-2.687-3.04V3.267C.646 1.591 1.852.228 3.333.228h21.058c1.483 0 2.689 1.363 2.689 3.038v13.97c0 1.676-1.206 3.04-2.689 3.04zM3.333 19.2h21.058c.866 0 1.569-.836 1.607-1.88H1.728c.037 1.044.74 1.88 1.605 1.88zM24.391 1.302H3.333c-.888 0-1.612.88-1.612 1.964v12.982h24.284V3.266c0-1.083-.724-1.964-1.614-1.964z"/>
</svg>
