<svg xmlns="http://www.w3.org/2000/svg" width="24" height="24" viewBox="0 0 24 24">
    <g fill="#818A99" fill-rule="nonzero">
        <path d="M10.337 5.117a.933.933 0 0 0-.335-1.836 10.91 10.91 0 0 0-7.646 15.894.931.931 0 0 0 1.264.38.932.932 0 0 0 .38-1.263 8.938 8.938 0 0 1-1.077-4.27 9.045 9.045 0 0 1 7.414-8.905zM22.556 11.36a.953.953 0 0 0-.018-.11c-.003-.01-.003-.022-.006-.033-.007-.03-.02-.058-.031-.087-.003-.008-.004-.018-.008-.026a.93.93 0 0 0-1.093-.566.934.934 0 0 0-.304.141l-6.902 2.898a2.734 2.734 0 0 0-4.956 1.602c0 1.51 1.228 2.74 2.738 2.74 1.44 0 2.623-1.12 2.73-2.533l7.147-3 .025-.004a.92.92 0 0 0 .599-.526c.009-.02.019-.04.026-.06a1.472 1.472 0 0 0 .049-.187 1.013 1.013 0 0 0 .01-.182c0-.023-.004-.044-.006-.066zm-10.58 4.693a.874.874 0 1 1 .004-1.749.874.874 0 0 1-.004 1.749zM21.895 16.133a.933.933 0 0 0 .925-.818l.008-.072a.932.932 0 1 0-1.854-.207l-.006.048a.933.933 0 0 0 .927 1.049zM16.858 6.396a.93.93 0 0 0 1.288-.282.933.933 0 0 0-.283-1.29l-.056-.036a.934.934 0 0 0-.996 1.578l.047.03zM13.736 5.139a.933.933 0 0 0 .374-1.827l-.078-.016a.932.932 0 1 0-.337 1.835l.041.008zM20.058 9.086a.933.933 0 0 0 .75-1.486l-.036-.05a.932.932 0 1 0-1.503 1.107l.037.05c.183.247.466.379.752.379zM19.978 18.247l-.024.044a.933.933 0 1 0 1.643.885l.033-.062a.934.934 0 0 0-1.652-.867z"/>
    </g>
</svg>
