<?xml version="1.0" encoding="UTF-8"?>
<svg width="20px" height="21px" viewBox="0 0 20 21" version="1.1" xmlns="http://www.w3.org/2000/svg" xmlns:xlink="http://www.w3.org/1999/xlink">
    <!-- Generator: sketchtool 45.1 (43504) - http://www.bohemiancoding.com/sketch -->
    <title>FD92EE08-C4BE-45B0-87DA-896CFF0C65FE</title>
    <desc>Created with sketchtool.</desc>
    <defs></defs>
    <g id="Icons" stroke="none" stroke-width="1" fill="none" fill-rule="evenodd">
        <g transform="translate(-605.000000, -256.000000)" id="Edge" fill-rule="nonzero" fill="#B5B8BD">
            <g transform="translate(605.000000, 256.000000)">
                <path d="M7.49822713,5.1787335 C6.65733324,6.09044467 6.23680931,7.21253889 6.09671165,8.4047351 C8.6194703,8.4047351 11.0721801,8.4047351 13.5248899,8.4047351 C13.5248899,8.19435206 13.5248899,8.05407103 13.5248899,7.84368799 C13.4548411,7.07225785 13.3146665,6.30082771 12.8942195,5.59949957 C12.3335979,4.68778839 11.4225782,4.19692032 10.3714609,4.05663928 C8.82977075,3.77615425 7.35812946,4.05663928 5.95661398,4.61768639 C3.85430228,5.38911653 2.10238868,6.65149178 0.700796228,8.3346331 C0.490572755,8.61511813 0.280349282,8.96578221 0,9.31644628 C0,9.10606324 0,9.03596124 0.0700488321,8.89568021 C0.350321137,6.93205385 1.05111737,5.0385295 2.38258401,3.49559218 C3.92435111,1.67224686 5.88648818,0.550152646 8.26914917,0.129386575 C10.5816843,-0.221277496 12.7541219,0.129386575 14.7863847,1.32158279 C16.678473,2.373575 17.9398908,3.98653728 18.7107358,6.02034267 C19.1311828,7.14243689 19.3414063,8.40481213 19.4115321,9.59700835 C19.4115321,10.3684385 19.4115321,11.1398686 19.4115321,11.9112988 C19.4115321,11.9814008 19.4115321,12.0515798 19.4115321,12.1917838 C14.9966852,12.1917838 10.6518871,12.1917838 6.23696327,12.1917838 C6.23696327,13.243776 6.58736138,14.2255892 7.28815761,14.9970193 C8.1290515,15.9087305 9.25029468,16.3294966 10.3715378,16.5398796 C12.8942965,16.8905437 15.2069087,16.4697776 17.3792692,15.2074024 C17.449318,15.2074024 17.5194438,15.1373004 17.5194438,15.1373004 C17.5194438,15.1373004 17.5194438,15.1373004 17.5894927,15.1373004 C17.5894927,15.2074024 17.5894927,15.2775814 17.5894927,15.3476834 C17.5894927,16.6801607 17.5894927,18.0126379 17.5894927,19.3451152 C17.5894927,19.4853962 17.5194438,19.5554982 17.3792692,19.6256002 C15.8375791,20.3970303 14.1557143,20.8879754 12.4038007,20.9580774 C11.2825576,21.0281794 10.1613144,21.0281794 9.11019701,20.8177964 C5.8165933,20.1164683 3.15358303,17.7320758 2.52291261,14.2956142 C1.82211638,10.3682844 3.71420461,6.79161874 7.42833225,5.17865646 C7.4281783,5.1787335 7.4281783,5.1787335 7.49822713,5.1787335 Z" id="Shape"></path>
            </g>
        </g>
    </g>
</svg>