<svg xmlns="http://www.w3.org/2000/svg" width="15" height="15" viewBox="0 0 15 15">
    <g fill="#FFF" fill-rule="nonzero">
        <ellipse cx="7.5" cy="7.521" rx="4.706" ry="4.666"/>
        <path d="M7.479 0a.722.722 0 0 0-.731.724c0 .401.326.725.73.725.405 0 .731-.324.731-.725 0-.4-.326-.724-.73-.724zM5.123.413a.73.73 0 0 0-.25.043c-.003 0-.008.004-.012.004a.726.726 0 0 0-.43.93.726.726 0 0 0 .688.472.723.723 0 0 0 .688-.972.728.728 0 0 0-.684-.477zM3.056 1.611a.722.722 0 0 0-.469.17l-.008.009a.722.722 0 0 0 .477 1.274.733.733 0 0 0 .473-.17.72.72 0 0 0 .081-1.023.708.708 0 0 0-.554-.26zM1.53 3.439a.723.723 0 1 0 0 1.449.723.723 0 1 0 0-1.449zM.735 5.672a.73.73 0 0 0-.722.61v.004a.723.723 0 0 0 .602.826.73.73 0 0 0 .842-.6.725.725 0 0 0-.602-.832c-.043-.004-.081-.008-.12-.008zm.03 2.382a.722.722 0 0 0-.718.857v.008a.73.73 0 0 0 .856.571.726.726 0 0 0 .58-.848.73.73 0 0 0-.718-.588zm.855 2.216a.722.722 0 0 0-.628 1.095v.004l.005.005a.734.734 0 0 0 .623.345.723.723 0 0 0 .628-1.095.725.725 0 0 0-.628-.354zm1.578 1.785a.72.72 0 0 0-.46 1.287.735.735 0 0 0 1.027-.106.72.72 0 0 0-.112-1.019.71.71 0 0 0-.455-.162zm2.093 1.142a.731.731 0 0 0-.692.495.722.722 0 0 0 .46.916.731.731 0 0 0 .924-.456.722.722 0 0 0-.46-.916.716.716 0 0 0-.232-.039zm2.368.35h-.017a.727.727 0 0 0-.714.741.73.73 0 0 0 .731.708h.03a.725.725 0 0 0 .705-.742.736.736 0 0 0-.735-.707zm2.347-.473a.724.724 0 1 0 .266 1.398h.005s.004 0 .004-.005a.72.72 0 0 0 .404-.937.732.732 0 0 0-.68-.456zm2.033-1.253a.727.727 0 0 0-.486.183.718.718 0 0 0-.056 1.023.735.735 0 0 0 1.032.06l.004-.005a.718.718 0 0 0 .056-1.022.78.78 0 0 0-.55-.239zm1.474-1.866a.73.73 0 0 0-.645.383.721.721 0 0 0 .301.98c.108.06.228.085.344.085a.73.73 0 0 0 .645-.383c0-.004.004-.004.004-.009a.721.721 0 0 0-.305-.975.813.813 0 0 0-.344-.081zm.735-2.255a.725.725 0 0 0-.722.627.72.72 0 0 0 .623.814.728.728 0 0 0 .82-.614v-.013a.722.722 0 0 0-.627-.81c-.03-.004-.06-.004-.094-.004zm-.09-2.373a.724.724 0 0 0-.713.878.728.728 0 0 0 .867.554.724.724 0 0 0 .56-.861.732.732 0 0 0-.714-.571zm-.916-2.195a.725.725 0 0 0-.615 1.116.726.726 0 0 0 1.006.222.724.724 0 0 0 .228-.997.738.738 0 0 0-.619-.34zm-1.62-1.747a.727.727 0 0 0-.58.285.717.717 0 0 0 .137 1.015.72.72 0 0 0 .443.149c.219 0 .438-.098.58-.286a.717.717 0 0 0-.138-1.014.748.748 0 0 0-.442-.15zM9.494.298a.725.725 0 0 0-.215 1.42.725.725 0 0 0 .911-.477.72.72 0 0 0-.477-.904c-.004 0-.004 0-.008-.005a.681.681 0 0 0-.21-.034z"/>
    </g>
</svg>
