<svg xmlns="http://www.w3.org/2000/svg" width="19" height="17" viewBox="0 0 19 17">
    <g fill="#4A4A4A" fill-rule="nonzero">
        <path d="M12.145 15.094h-5.29a2.78 2.78 0 0 1 2.645-1.88c1.232 0 2.26.798 2.645 1.88zM1.977 1.906h15.046v9.427H1.977V1.906zm16.92 11.308V.026H.103v13.213h5.674a4.863 4.863 0 0 0-.873 1.88H2.927V17h13.172v-1.88h-1.977c-.129-.696-.463-1.34-.873-1.88h5.648v-.026z"/>
        <path d="M12.324 7.547v1.958l3.312-2.885-3.312-2.885v1.932H6.676V3.735L3.364 6.62l3.312 2.885V7.547z"/>
    </g>
</svg>
