<svg xmlns="http://www.w3.org/2000/svg" width="18" height="18" viewBox="0 0 18 18">
    <path fill="#0EBAC5" fill-rule="nonzero" d="M10.692 17.327a.393.393 0 0 1-.26-.106l-1.964-1.803a.062.062 0 0 0-.042-.017H2.115C.95 15.401 0 14.468 0 13.32V8.28a2.115 2.115 0 0 1 2.115-2.107h4.689a.062.062 0 0 0 .062-.062V3.09c0-1.153.952-2.09 2.12-2.09h6.863a2.09 2.09 0 0 1 2.087 2.09v5.037a2.096 2.096 0 0 1-2.087 2.1H9.643c-.05 0-.085 0-.105.004a.062.062 0 0 0-.027.01 2.685 2.685 0 0 0-.226.196l-.117.106-1.643 1.497a.396.396 0 1 1-.66-.285V7.008a.062.062 0 0 0-.062-.062H2.115A1.34 1.34 0 0 0 .77 8.28v5.038a1.328 1.328 0 0 0 1.344 1.314H8.6a.389.389 0 0 1 .255.112l1.339 1.233a.062.062 0 0 0 .104-.046v-4.257a.386.386 0 0 1 .771 0v5.271a.377.377 0 0 1-.378.38zM8.987 1.77a1.336 1.336 0 0 0-1.35 1.319v7.65a.062.062 0 0 0 .104.045l.9-.813c.021-.02.044-.037.063-.054l.062-.05c.38-.351.482-.414.904-.414H15.85a1.324 1.324 0 0 0 1.315-1.324V3.092a1.306 1.306 0 0 0-1.316-1.318L8.987 1.77zm-4.14 9.304a.386.386 0 0 1 0-.771h.038a.386.386 0 0 1 0 .771h-.038zm-1.555 0a.386.386 0 0 1 0-.771h.038a.386.386 0 0 1 0 .771h-.038zm9.022-3.117a.387.387 0 0 1 0-.773.387.387 0 1 1 0 .773zm-.012-1.31a.379.379 0 0 1-.386-.373c-.004-.45.318-.72.602-.958l.01-.008c.244-.206.392-.34.392-.488a.506.506 0 0 0-1.01 0 .386.386 0 0 1-.772 0 1.276 1.276 0 0 1 2.55 0c0 .516-.384.84-.664 1.074l-.02.018c-.222.186-.32.28-.32.357a.373.373 0 0 1-.103.265.381.381 0 0 1-.272.113h-.007z"/>
</svg>
