<svg xmlns="http://www.w3.org/2000/svg" width="9" height="11" viewBox="0 0 9 11">
    <path fill="#FFF" fill-rule="nonzero" d="M8.72.794C8.51.303 8.08 0 7.591 0H1.255C.733 0 .275.343.087.878c-.174.498-.084 1.046.243 1.426l3.168 3.727c.101.118.22.212.35.283v4.087c0 .316.26.572.572.572a.574.574 0 0 0 .572-.572v-4.08c.135-.07.26-.168.36-.29l3.169-3.727.06-.084.02-.03c.266-.41.31-.945.118-1.396zm-1.044.787l-.013.017-3.159 3.717a.1.1 0 0 1-.161 0l-3.169-3.73c-.057-.068-.087-.206-.04-.34.023-.064.067-.135.12-.135h6.338c.017 0 .068.03.105.118a.407.407 0 0 1-.02.353z"/>
</svg>
