<svg xmlns="http://www.w3.org/2000/svg" width="18" height="11" viewBox="0 0 18 11">
    <path fill="#676767" fill-rule="nonzero" d="M16.777.843a1.232 1.232 0 0 0-1.292.122l-2.312 1.754v-.581l-.004-.078A2.312 2.312 0 0 0 10.868 0H2.316A2.319 2.319 0 0 0 0 2.316V8.51a2.319 2.319 0 0 0 2.316 2.316h8.552a2.312 2.312 0 0 0 2.301-2.06v-.662l2.316 1.758a1.231 1.231 0 0 0 1.976-.981V1.945c0-.467-.265-.895-.684-1.102zm-5.013 7.801a.904.904 0 0 1-.896.772H2.316a.907.907 0 0 1-.906-.906V2.316c0-.5.407-.906.906-.906h8.552c.451 0 .83.33.896.772v6.462z"/>
</svg>
