<svg xmlns="http://www.w3.org/2000/svg" width="16" height="16" viewBox="0 0 16 16">
    <g fill="#0EBAC5" fill-rule="nonzero">
        <path d="M8.05 15.65a7.68 7.68 0 0 1-3.496-.845l-.043-.022-2.704.725.622-2.318-.046-.051a7.65 7.65 0 1 1 5.666 2.511zm-3.298-1.606a6.906 6.906 0 1 0-1.616-1.227l.152.155-.405 1.453 1.722-.462.147.081z"/>
        <path d="M5.53 9.068a1.768 1.768 0 0 1 0-2.524l.02-.02a1.84 1.84 0 0 1 2.374-.165L8 6.416l.076-.057a1.835 1.835 0 0 1 2.374.165l.02.02a1.768 1.768 0 0 1 0 2.524L8 11.5 5.53 9.068zm1.303-2.32a1.053 1.053 0 0 0-.745.303l-.02.02c-.41.405-.41 1.06 0 1.465L8 10.44l1.932-1.903c.41-.405.41-1.06 0-1.465l-.02-.02a1.085 1.085 0 0 0-1.488 0L8 7.478l-.429-.425a1.053 1.053 0 0 0-.738-.302v-.002z"/>
    </g>
</svg>
