<svg xmlns="http://www.w3.org/2000/svg" width="114" height="27" viewBox="0 0 114 27">
    <g fill="#A1A3A6" fill-rule="nonzero">
        <path d="M72.7 5.5c1.1 0 2.7.2 4.2.4.1 0 .3 0 .4-.1.1-.1.2-.2.2-.3l.3-2.5c0-.2-.1-.5-.4-.5-1.5-.4-3.2-.6-4.8-.6-4.5 0-6.8 1.9-6.8 5.6v8.4c0 3.7 2.3 5.6 6.8 5.6 1.6 0 3.3-.2 4.8-.6.2-.1.4-.3.4-.5l-.3-2.5c0-.1-.1-.2-.2-.3-.1-.1-.2-.1-.4-.1-1.5.3-3.1.4-4.2.4-2.2 0-3-.7-3-2.6V8.1c0-2 .8-2.6 3-2.6M43.1 2.1h-3c-.3 0-.5.2-.5.5v7.1h-6.5V2.6c0-.3-.2-.5-.5-.5h-3c-.3 0-.5.2-.5.5v18c0 .3.2.5.5.5h3c.3 0 .5-.2.5-.5v-7.3h6.5v7.3c0 .3.2.5.5.5h3c.3 0 .5-.2.5-.5v-18c0-.2-.2-.5-.5-.5M100 16v1.7c-.5.3-1.3.6-2.4.6-.9 0-1.2-.3-1.2-1.2 0-.9.2-1.1 1.2-1.1h2.4zm-1.9-9.1c-1.4 0-3.2.2-4.5.6-.2.1-.4.3-.3.5l.3 2.1c0 .1.1.2.2.3.1.1.2.1.4.1 1.2-.2 2.4-.4 3.4-.4 2.1 0 2.4.4 2.4 1.8v1.2h-3c-2.9 0-4.2 1.2-4.2 4 0 2.7 1.4 4.2 3.7 4.2 1.4 0 2.8-.4 3.9-1.1l.1.4c.1.2.2.4.5.4h2.3c.3 0 .5-.2.5-.5V12c0-3.8-1.5-5.1-5.7-5.1zM113.7 18.3c0-.1-.1-.3-.2-.3-.1-.1-.3-.1-.4-.1-.5.1-1 .2-1.4.2-.7 0-1-.3-1-1v-6.9h2.8c.3 0 .5-.2.5-.5V7.6c0-.3-.2-.5-.5-.5h-2.8V3.8c0-.1-.1-.3-.2-.4-.1-.1-.2-.1-.4-.1l-2.8.4c-.2 0-.4.2-.4.5v2.9h-1.6c-.3 0-.5.2-.5.5v2.2c0 .3.2.5.5.5h1.6v7.3c0 2.5 1.3 3.8 3.9 3.8.7 0 2-.2 2.8-.5.2-.1.4-.3.3-.5l-.2-2.1zM49.3 7.1h-2.8c-.3 0-.5.2-.5.5v13c0 .3.2.5.5.5h2.8c.3 0 .5-.2.5-.5v-13c0-.3-.2-.5-.5-.5M49.3 1.6h-2.8c-.3 0-.5.2-.5.5v2.8c0 .3.2.5.5.5h2.8c.3 0 .5-.2.5-.5V2.1c0-.3-.2-.5-.5-.5"/>
        <path d="M49.3 7.1h-2.8c-.3 0-.5.2-.5.5v13c0 .3.2.5.5.5h2.8c.3 0 .5-.2.5-.5v-13c0-.3-.2-.5-.5-.5M60 11.7v4.8c0 1.2-.4 1.6-1.5 1.6s-2.2-.2-2.8-.3v-6.5c.6-.5 1.8-1.1 2.8-1.1 1.1 0 1.5.4 1.5 1.5m-.5-4.8c-1.5 0-2.9.4-4.2 1.3l-.2-.7c-.1-.2-.2-.3-.5-.3h-2.2c-.3 0-.5.2-.5.5v18.5c0 .3.2.5.5.5h2.8c.3 0 .5-.2.5-.5V21c1.1.2 2.4.3 3.4.3 3.1 0 4.7-1.7 4.7-5v-4.6c0-4-2.3-4.8-4.3-4.8M88 6.9c-1.4 0-3.3.5-4.8 1.2v-6c0-.3-.2-.5-.5-.5H80c-.3 0-.5.2-.5.5v18.5c0 .3.2.5.5.5h2.8c.3 0 .5-.2.5-.5v-9c1-.5 2.5-1.1 3.3-1.1.6 0 .9.2.9.9v9.2c0 .3.2.5.5.5h2.8c.3 0 .5-.2.5-.5V11c0-2.7-1.1-4.1-3.3-4.1M19.9 14.1c0-.3-.2-.5-.5-.5-.1 0-.2 0-.3.1-1.3 1.1-3.4 2.1-6 2.2-2.6 0-4.7-1.1-6-2.2-.1-.1-.2-.1-.3-.1-.3 0-.5.3-.5.6 0 .2.2.4.3.6.7 1.1 3.1 3 6.6 3h.1c3.5 0 5.8-1.9 6.6-3-.1-.3 0-.5 0-.7z"/>
        <path d="M20 21.7c0 .1.1.1.1.1 0 .1-.1.1-.2.1-.6 0-2.6-1-3.6-1.9-.1 0-.3-.1-.6 0-.9.2-1.7.3-2.7.3-5.8 0-10.5-3.9-10.5-8.7C2.6 6.9 7.3 3 13.1 3s10.5 3.9 10.5 8.6c0 2.9-1.7 5.4-4.2 7-.2.1-.4.3-.4.6-.1.5.4 1.7 1 2.5zm3.4 1.1c-.9-.5-1.7-1.4-2.1-2.5-.1-.2 0-.4.2-.6 2.6-2 4.2-4.9 4.2-8.1 0-6-5.6-10.9-12.6-10.9S.5 5.6.5 11.6s5.6 10.9 12.6 10.9c.9 0 1.8-.1 2.6-.2.2 0 .4 0 .5.1 1.7 1.1 4.3 1.9 6.5 1.9.7 0 1-.5 1-.9.1-.3-.1-.5-.3-.6z"/>
    </g>
</svg>
