<?xml version="1.0" encoding="UTF-8"?>
<svg width="22px" height="21px" viewBox="0 0 22 21" version="1.1" xmlns="http://www.w3.org/2000/svg" xmlns:xlink="http://www.w3.org/1999/xlink">
    <!-- Generator: sketchtool 45.1 (43504) - http://www.bohemiancoding.com/sketch -->
    <title>C7178509-B75E-4BB1-A770-1A58F3F1F169</title>
    <desc>Created with sketchtool.</desc>
    <defs></defs>
    <g id="Icons" stroke="none" stroke-width="1" fill="none" fill-rule="evenodd">
        <g transform="translate(-604.000000, -131.000000)" id="IE-Grey" fill-rule="nonzero" fill="#B5B8BD">
            <g transform="translate(604.000000, 131.000000)">
                <path d="M16.3773274,12.1785102 L21.6427253,12.1785102 C21.6832781,11.8130792 21.6995171,11.4396564 21.6995171,11.0579295 C21.6995171,9.2671167 21.219129,7.58742886 20.3806805,6.14092929 C21.2479041,3.83476279 21.2169876,1.87746347 20.0559902,0.707682456 C18.9519631,-0.392360839 15.989778,-0.213775135 12.6411589,1.27022743 C12.39347,1.25147593 12.1433719,1.2418323 11.8909094,1.2418323 C7.29474456,1.2418323 3.43847908,4.40712998 2.3726403,8.67211378 C3.81442916,6.8247786 5.33125636,5.48538582 7.35755905,4.50999534 C7.17330916,4.68277701 6.09828019,5.7523268 5.91746546,5.9334127 C0.573995527,11.2792865 -1.11106565,18.2626126 0.702033588,20.0774452 C2.08024955,21.4564393 4.57792859,21.2235636 7.44691802,19.8174244 C8.78096754,20.4973448 10.290969,20.880679 11.8907756,20.880679 C16.1987879,20.880679 19.8496571,18.1055465 21.172152,14.2406393 L15.8662458,14.2406393 C15.1361166,15.5885149 13.7082022,16.5059543 12.0694043,16.5059543 C10.4306063,16.5059543 9.00260276,15.5885149 8.27251814,14.2406393 C7.94796173,13.6317513 7.76139198,12.9335705 7.76139198,12.1945829 L7.76139198,12.1785102 L16.3773274,12.1785102 Z M7.76928841,9.58848168 C7.89099148,7.42067445 9.69208995,5.69120584 11.8907756,5.69120584 C14.089372,5.69120584 15.8905151,7.42062981 16.0121735,9.58848168 L7.76928841,9.58848168 Z M20.0079425,1.7977696 C20.7557829,2.55408006 20.7370903,3.94557522 20.0974353,5.68249979 C19.0014384,4.01031254 17.4091268,2.69261792 15.5292871,1.94023634 C17.5392616,1.07771204 19.1743121,0.963461832 20.0079425,1.7977696 Z M2.08524616,19.7332659 C1.13093878,18.7779663 1.4186006,16.7728506 2.64798905,14.3571218 C3.41327298,16.5062222 4.90440334,18.3103396 6.82675875,19.4725754 C4.69811484,20.439617 2.95581574,20.6037819 2.08524616,19.7332659 Z" id="Shape"></path>
            </g>
        </g>
    </g>
</svg>