<svg xmlns="http://www.w3.org/2000/svg" width="10" height="20" viewBox="0 0 10 20">
    <path fill="#000" fill-rule="nonzero" d="M7.032 0c1.34 0 2.009.913 2.009 1.958 0 1.304-1.163 2.51-2.678 2.51-1.269 0-2.01-.75-1.974-1.989C4.389 1.435 5.27 0 7.032 0zM2.91 20c-1.058 0-1.833-.652-1.093-3.523l1.214-5.091c.211-.816.246-1.142 0-1.142-.318 0-1.69.563-2.502 1.118L0 10.482c2.573-2.186 5.532-3.468 6.8-3.468 1.058 0 1.234 1.273.706 3.23l-1.39 5.352c-.247.946-.14 1.272.105 1.272.318 0 1.358-.393 2.38-1.208l.599.815C6.698 19.02 3.966 20 2.909 20z" opacity=".596"/>
</svg>
