<svg xmlns="http://www.w3.org/2000/svg" width="16" height="21" viewBox="0 0 16 21">
    <g fill="#FFF" fill-rule="nonzero">
        <path d="M3.42 1.224c-.756 0-1.332.612-1.332 1.332 0 .756.612 1.332 1.332 1.332.756 0 1.332-.612 1.332-1.332 0-.72-.576-1.332-1.332-1.332m8.856 0c-.756 0-1.332.612-1.332 1.332 0 .756.612 1.332 1.332 1.332.756 0 1.332-.612 1.332-1.332 0-.72-.576-1.332-1.332-1.332M7.848 0c-.756 0-1.332.612-1.332 1.332 0 .756.612 1.332 1.332 1.332.756 0 1.332-.612 1.332-1.332C9.18.576 8.604 0 7.848 0m7.596 4.968c-.072-.072-.18-.072-.252-.072-.036 0-.108 0-.144.036-.9.36-1.836.612-2.7.828a.475.475 0 0 0-.36.324c-.612 1.692-2.196 3.276-3.852 4.968-.072.072-.144.144-.324.144a.456.456 0 0 1-.324-.144C5.832 9.36 4.248 7.776 3.636 6.084c-.072-.144-.18-.288-.36-.324a18.926 18.926 0 0 1-2.7-.828C.54 4.896.468 4.896.432 4.896c-.108 0-.18.036-.252.072a.443.443 0 0 0-.18.36C.144 6.732.684 8.1 1.692 9.54c.936 1.368 2.16 2.592 3.348 3.816 2.196 2.232 4.248 4.32 4.428 6.768 0 .216.216.396.432.396h2.628c.216 0 .432-.18.432-.432v-.036c-.072-1.62-.684-3.276-1.872-5.004-.252-.36-.504-.72-.792-1.044-.108-.144-.072-.324.036-.396l.252-.252c1.188-1.224 2.412-2.448 3.348-3.816 1.008-1.44 1.548-2.808 1.692-4.212a.438.438 0 0 0-.18-.36M5.076 15.264c-.072-.072-.144-.144-.288-.144-.18 0-.288.144-.36.216-1.08 1.656-1.62 3.204-1.728 4.752a.58.58 0 0 0 .108.324c.072.072.18.144.324.144h2.556c.216 0 .396-.18.432-.396a5.886 5.886 0 0 1 .72-2.304.644.644 0 0 0-.036-.648 21.867 21.867 0 0 0-1.728-1.944"/>
        <path d="M7.848 6.228c.792 0 1.26-.036 1.44-.036a.4.4 0 0 1 .396.396c0 .072 0 .108-.036.144-.108.288-.576 1.296-1.512 2.196-.108.108-.216.108-.288.108a.575.575 0 0 1-.288-.108c-.9-.864-1.404-1.908-1.512-2.196 0-.036-.036-.072-.036-.144a.4.4 0 0 1 .396-.396c.18 0 .648.036 1.44.036"/>
    </g>
</svg>
