<svg xmlns="http://www.w3.org/2000/svg" width="19" height="21" viewBox="0 0 19 21">
    <path fill="#FFF" fill-rule="evenodd" d="M9.486.148l3.826 2.209v-.002l.21.12.024.014.01.007 3.851 2.223.21.12a.823.823 0 0 1 .412.721v5.526l-1.648-.953V6.026l-3.645-2.104-.013-.006-.024-.014-.21-.12.002-.003-3.476-2.007-3.63 2.096a.615.615 0 0 1-.02.014h-.001l-.032.02-.21.121v-.001L1.648 6.026v8.51l3.645 2.104.013.007.025.014.208.12-.001.003 1.541.89.122.07V19.642l-.362-.21-2.122-1.225-.001.002-.209-.12-.024-.014-.014-.01-3.847-2.22-.21-.12a.822.822 0 0 1-.412-.721H0V5.552a.828.828 0 0 1 .462-.74l3.837-2.215-.001-.001.21-.121a.807.807 0 0 1 .034-.019l.008-.004.167-.096v.001L8.396.234 8.394.232l.21-.121a.822.822 0 0 1 .882.037zm-2.4 7.877l9.295 5.366v-1.657l1.649.949V14.535l-.815.834c-.115.146-.29.255-.435.172v-.001l-6.903-3.996v7.634a.242.242 0 0 1-.09.21l-.152-.188.152.189-1.156.935a.243.243 0 0 1-.408-.178V10.59l-1.548-.894-.819.473a.254.254 0 0 1-.019.012l-.488.281a.242.242 0 0 1-.345-.08l.21-.121-.21.121-.291-.501-.006-.01-.283-.487a.243.243 0 0 1 .08-.346l.121.21-.12-.21.505-.29 1.257-.723.27-.155a.243.243 0 0 1 .26-.013v.002l.288.166z"/>
</svg>
