<svg xmlns="http://www.w3.org/2000/svg" width="26" height="25" viewBox="0 0 26 25">
    <g fill="#000" fill-rule="nonzero">
        <path d="M3.89 16.1c-.91 0-1.652.74-1.652 1.651s.741 1.652 1.652 1.652c.91 0 1.651-.74 1.651-1.652 0-.91-.74-1.65-1.651-1.65zm0 2.477a.826.826 0 1 1 .001-1.653.826.826 0 0 1-.001 1.653zM24.118 15.687a.413.413 0 0 0-.413.413v1.651a.413.413 0 1 0 .826 0v-1.65a.413.413 0 0 0-.413-.414zM24.118 18.577a.413.413 0 0 0-.413.413v.413a.413.413 0 1 0 .826 0v-.413a.413.413 0 0 0-.413-.413zM15.862 2.477h-.413a.413.413 0 1 0 0 .826h.413a.413.413 0 1 0 0-.826zM22.054 2.477a.413.413 0 1 0 0 .826h.413a.413.413 0 1 0 0-.826h-.413zM23.705 2.477a.413.413 0 1 0 0 .826h.413a.413.413 0 1 0 0-.826h-.413zM17.513 2.477H17.1a.413.413 0 1 0 0 .826h.413a.413.413 0 1 0 0-.826zM20.403 2.477a.413.413 0 1 0 0 .826h.413a.413.413 0 1 0 0-.826h-.413zM19.164 2.477h-.413a.413.413 0 1 0 0 .826h.413a.413.413 0 1 0 0-.826zM14.21 2.477h-.412a.413.413 0 1 0 0 .826h.412a.413.413 0 1 0 0-.826z"/>
        <path d="M25.728 12.171a1.808 1.808 0 0 0-.29-.66.407.407 0 0 0 .331-.396v-.41a.413.413 0 1 0-.825 0v.327l-.015-.008a1.863 1.863 0 0 0-.23-.125l-.071-.032c-.018-.007-.035-.017-.053-.023-.015-.006-.03-.004-.045-.007a1.8 1.8 0 0 0-.58-.104H12.913a.409.409 0 0 0-.353-.206.407.407 0 0 0-.35.206h-9.39A1.82 1.82 0 0 0 1 12.552V22.95a1.82 1.82 0 0 0 1.818 1.818h21.133a1.82 1.82 0 0 0 1.818-1.818V12.345a.406.406 0 0 0-.041-.174zm-12.963-.612H22.466v12.385H6.78V11.559h5.986zM1.825 22.951v-10.4c0-.546.446-.992.993-.992h3.136v12.385H2.818a.994.994 0 0 1-.992-.993zm23.119 0a.994.994 0 0 1-.993.993h-.659V11.559h.659c.127 0 .246.026.358.07a.991.991 0 0 1 .635.923V22.95zM24.944 9.474a.413.413 0 1 0 .825 0v-.41a.413.413 0 1 0-.825 0v.41zM24.944 6.193a.413.413 0 1 0 .825 0v-.41a.413.413 0 1 0-.825 0v.41zM20.28.826h.41a.413.413 0 1 0 0-.826h-.41a.413.413 0 1 0 0 .826zM23.562.826h.41a.404.404 0 0 0 .402-.413.422.422 0 0 0-.423-.413h-.389a.413.413 0 0 0 0 .826zM21.921.826h.41a.413.413 0 1 0 0-.826h-.41a.413.413 0 1 0 0 .826zM24.87 1.442a.413.413 0 0 0 .764-.314 1.824 1.824 0 0 0-.27-.455.413.413 0 1 0-.642.52.971.971 0 0 1 .147.249zM25.357 4.965a.413.413 0 0 0 .412-.412v-.41a.413.413 0 1 0-.825 0v.41c0 .228.185.412.413.412zM24.944 7.834a.413.413 0 1 0 .825 0v-.41a.413.413 0 1 0-.825 0v.41zM25.357 2.09a.413.413 0 0 0-.413.412v.41a.413.413 0 1 0 .825 0v-.41a.413.413 0 0 0-.412-.413zM12.56 5.192a.413.413 0 0 0 .412-.413v-.41a.413.413 0 1 0-.826 0v.41c0 .228.185.413.413.413zM12.56 6.833a.413.413 0 0 0 .412-.413v-.41a.413.413 0 1 0-.826 0v.41c0 .228.185.413.413.413zM12.56 10.114a.413.413 0 0 0 .412-.413v-.41a.413.413 0 1 0-.826 0v.41c0 .228.185.413.413.413zM18.64.826h.41a.413.413 0 1 0 0-.826h-.41a.413.413 0 1 0 0 .826zM12.56 3.551a.413.413 0 0 0 .412-.413v-.41a.413.413 0 1 0-.826 0v.41c0 .228.185.413.413.413zM12.56 8.473a.413.413 0 0 0 .412-.413v-.41a.413.413 0 1 0-.826 0v.41c0 .229.185.413.413.413zM16.999.826h.41a.413.413 0 1 0 0-.826h-.41a.413.413 0 1 0 0 .826zM15.358.826h.41a.413.413 0 1 0 0-.826h-.41a.413.413 0 1 0 0 .826zM12.502 1.902a.413.413 0 0 0 .495-.31.99.99 0 0 1 .106-.266.413.413 0 0 0-.716-.412c-.089.155-.154.32-.194.493a.413.413 0 0 0 .31.495zM13.719.847a.392.392 0 0 0 .072-.006 1.05 1.05 0 0 1 .174-.015h.163a.413.413 0 1 0 0-.826h-.163c-.107 0-.214.01-.318.028a.413.413 0 0 0 .072.82zM2.651 9.082a.413.413 0 0 0 .413-.413 4.546 4.546 0 0 1 4.541-4.54h1.068L6.9 5.9a.412.412 0 1 0 .584.584l2.477-2.476a.413.413 0 0 0 0-.585L7.484.947a.412.412 0 1 0-.584.583l1.773 1.773H7.605a5.373 5.373 0 0 0-5.367 5.366c0 .229.185.413.413.413z"/>
    </g>
</svg>
