<svg xmlns="http://www.w3.org/2000/svg" width="18" height="19" viewBox="0 0 18 19">
    <g fill="#010101" fill-rule="nonzero" opacity=".596">
        <path d="M12.907 2.148a1.303 1.303 0 0 0-1.739.511c-.347.614-.102 1.391.512 1.739a6.056 6.056 0 0 1 3.17 5.338c.02 3.355-2.7 6.076-6.054 6.076a6.076 6.076 0 0 1-3.253-11.21c.593-.388.778-1.166.389-1.759a1.263 1.263 0 0 0-1.76-.388C1.658 4.03.165 6.77.165 9.736a8.634 8.634 0 0 0 8.632 8.632 8.634 8.634 0 0 0 8.631-8.632 8.64 8.64 0 0 0-4.52-7.588z"/>
        <path d="M8.796 9.143c.715 0 1.268-.572 1.268-1.268V1.33C10.064.614 9.49.06 8.796.06 8.1.061 7.527.634 7.527 1.33v6.525c0 .716.553 1.288 1.269 1.288z"/>
    </g>
</svg>
