<svg xmlns="http://www.w3.org/2000/svg" width="10" height="17" viewBox="0 0 10 17">
    <path fill="#7F7F7F" fill-rule="nonzero" d="M3.704 14.26a.371.371 0 0 0-.37.37c0 .203.166.37.37.37h2.592c.204 0 .37-.167.37-.37a.371.371 0 0 0-.37-.37H3.704zM.74 13.703h8.518V15c0 .315-.24.556-.555.556H1.296A.546.546 0 0 1 .741 15v-1.296zm0-11.111h8.518v10.37H.741V2.593zM1.296.74h7.408c.315 0 .555.24.555.555v.556H.741v-.556c0-.315.24-.555.555-.555zm0-.741C.593 0 0 .593 0 1.296V15c0 .704.593 1.296 1.296 1.296h7.408C9.407 16.296 10 15.704 10 15V1.296C10 .593 9.407 0 8.704 0H1.296z"/>
</svg>
