<svg xmlns="http://www.w3.org/2000/svg" width="11" height="9" viewBox="0 0 11 9">
    <g fill="#FFF" fill-rule="nonzero">
        <path d="M8.27 3.92L5.503.23A.56.56 0 0 0 4.71.115a.56.56 0 0 0-.113.791l2.091 2.79H.565A.569.569 0 0 0 0 4.261v.02c0 .309.256.565.565.565h6.123l-2.09 2.789a.56.56 0 0 0 .112.79.56.56 0 0 0 .792-.112L8.27 4.62c.08-.1.116-.226.116-.35a.568.568 0 0 0-.116-.352zM10.328 0c-.309 0-.565.28-.565.618v7.456a.565.565 0 1 0 1.13 0V.618c0-.339-.252-.618-.565-.618z"/>
    </g>
</svg>
