<svg xmlns="http://www.w3.org/2000/svg" width="20" height="20" viewBox="0 0 20 20">
    <g fill="#FFF" fill-rule="nonzero">
        <path d="M6.634 7.327l-.891 3.366-2.872-7.92 8.02 2.772-3.564 1.089a1.196 1.196 0 0 0-.693.693zm7.722-.693a.951.951 0 0 0 .694-.891c0-.396-.298-.793-.694-.99L1.486.197C1.187.099.791.198.494.495c-.297.297-.396.693-.198.99L5.05 14.356c.099.396.396.694.89.694a.951.951 0 0 0 .892-.694l1.584-5.94 5.94-1.782zM17.03 15.05v.99L20 14.06l-2.97-1.98v.99h-1.98v-1.98h.99l-1.98-2.971-1.98 2.97h.99v1.98h-1.98v-.99l-2.971 1.98 2.97 1.98v-.99h1.98v1.98h-.99L14.06 20l1.98-2.97h-.99v-1.98z"/>
    </g>
</svg>
