<svg xmlns="http://www.w3.org/2000/svg" width="21" height="21" viewBox="0 0 21 21">
    <defs>
        <radialGradient id="a" cx="59.529%" cy="60.155%" r="38.803%" fx="59.529%" fy="60.155%">
            <stop offset="0%" stop-color="#0E4F8F"/>
            <stop offset="100%" stop-color="#115594"/>
            <stop offset="100%" stop-color="#45BCEE"/>
        </radialGradient>
        <linearGradient id="b" x1="81.095%" x2="30.158%" y1="17.427%" y2="50%">
            <stop offset="0%" stop-color="#FFF454"/>
            <stop offset="100%" stop-color="#FF2E18"/>
        </linearGradient>
    </defs>
    <g fill="none" fill-rule="evenodd">
        <circle cx="10.351" cy="9.92" r="9.702" fill="url(#a)"/>
        <path fill="url(#b)" fill-rule="nonzero" d="M20.822 7.696c-.095.723-.198 1.095-.302 1.12 0 0-.036-3.865-1.317-5.147.218 2.254.002 1.346.002 1.356-1.738-3-4.982-5.025-8.69-5.025a10.024 10.024 0 0 0-7.713 3.619 1.57 1.57 0 0 1-.05-.046c-.289-.264-.454-1.532-.454-1.532l-.003-.012-.002-.014c0-.002 0-.005-.002-.008-.003.002-.004.006-.008.008l-.01.012c-.003.003-.005.008-.01.011-.003.004-.006.009-.01.012a.036.036 0 0 1-.01.011c-.003.004-.006.01-.009.012-.004.004-.007.009-.012.012-.002.004-.006.007-.01.011a.066.066 0 0 1-.01.013.102.102 0 0 1-.01.011l-.009.012-.01.011a.061.061 0 0 1-.011.013s-.54.709-.73 1.48c-.127.612-.002.008-.004.01 0 .005 0 .01-.002.014l-.002.012h-.001c-.16.635-.238 1.39-.228 2.277-.007.008-.015.014-.02.021 0 0-.95 1.03-1.108 2.133-.03.219-.05.35-.06.42v.007C.005 8.562 0 8.595 0 8.628l.01-.014c.002.082.01.164.031.24l.57-.465c-.007.055-.019.108-.027.164a7.021 7.021 0 0 0-.374 1.582c-.187 1.69.177 3.365 1.079 5.022 0 0 .362.651.582.96.028.045.053.088.084.132l.007.001c1.884 2.575 4.907 4.244 8.315 4.244 3.017 0 5.727-1.307 7.617-3.39h.037c.125-.152.24-.309.358-.464.315-.39.606-.802.864-1.235l-.025.001c.809-1.327 1.34-2.695 1.58-4.107.346-1.392.385-2.593.114-3.603zM2.789 3.636a.065.065 0 0 1-.006-.011l-.008-.014-.009-.011-.006-.015.04.036c-.003.006-.007.01-.01.014zm15.137 3.601a1.51 1.51 0 0 0-.855-.659c.445 1.732.49 3.162.129 4.289-.248-.752-.475-1.203-.678-1.36.282 2.319-.1 4.036-1.143 5.154.199-.682.278-1.242.232-1.682-1.225 1.836-2.62 2.786-4.18 2.846a5.864 5.864 0 0 1-1.75-.278l-.034-.002a3.161 3.161 0 0 1-.16-.058h-.001a3.326 3.326 0 0 1-.271-.115c-.044-.02-.088-.038-.133-.06l-.125-.064a3.733 3.733 0 0 1-.124-.063c-.04-.021-.079-.046-.117-.07a1.983 1.983 0 0 1-.118-.069 1.727 1.727 0 0 1-.113-.071c-.038-.023-.073-.05-.11-.074l-.11-.074-.103-.08c-.033-.025-.069-.051-.102-.078a2.838 2.838 0 0 1-.1-.082c-.033-.026-.064-.056-.097-.083-.032-.027-.065-.054-.096-.084-.031-.027-.06-.058-.092-.087a1.903 1.903 0 0 1-.09-.085l-.071-.069c.01.002.019.002.028.002l.072.005a14.457 14.457 0 0 0 .14.007c.025.002.048.004.07.004.025 0 .049.003.072.003h.074l.073-.002h.073l.073-.001.072-.002.076-.006c.025-.002.051-.005.077-.006l.073-.007.076-.004.077-.01c.026-.002.052-.008.078-.012.025-.003.05-.006.077-.011.026-.003.05-.008.077-.01.026-.006.053-.008.078-.013.027-.005.054-.012.08-.018.026-.004.052-.012.08-.017l.08-.02c.027-.005.055-.01.08-.017l.083-.022.083-.025c.029-.007.057-.015.084-.024.027-.009.056-.015.083-.024l.086-.03c.029-.011.06-.021.087-.033l.088-.032c.028-.012.058-.02.087-.033l.09-.042.093-.043.091-.041c.013-.008.029-.013.041-.02l.057-.037.102-.067.102-.065.103-.067.103-.066.102-.065.102-.067.103-.065.102-.067.101-.066.103-.067.102-.065.102-.067.048-.03-.004-.004a.61.61 0 0 1 .494.014c.326-.045.44-.219.332-.51-.158-.217-.397-.415-.702-.587-.668-.348-1.364-.293-2.092.167-.69.39-1.358.376-2.006-.04a5.836 5.836 0 0 1-1.23-1.172l-.159-.232-.001.028.001-.03v-.004l.001-.02a1.322 1.322 0 0 1 .061-.338.702.702 0 0 1 .128-.234.616.616 0 0 1 .28-.187.992.992 0 0 1 .137-.031l-.078-.007c-.073-.006-.137-.013-.196-.017a14.582 14.582 0 0 0-.294-.023l-.105-.006c-.056-.002-.109-.006-.163-.01-.015 0-.025-.002-.04-.003a1.921 1.921 0 0 1-.16-.015h.182a26.239 26.239 0 0 1 .834.06c.437.04.936.14 1.498.3.095-.539-.03-1.103-.37-1.68v-.01a.81.81 0 0 0-.124-.193.537.537 0 0 1 .122.173c.007.014.016.025.021.039.015-.015.03-.025.045-.04l.067-.06.067-.058.067-.06.066-.06.066-.06c.023-.02.045-.035.068-.055.022-.02.044-.036.067-.053.022-.02.044-.037.066-.055l.066-.054.067-.054.068-.052c.023-.017.044-.03.066-.048.023-.018.045-.032.066-.048l.069-.05c.022-.015.044-.032.066-.046l.067-.046.067-.042.067-.042c.023-.012.045-.027.067-.041.022-.014.045-.03.066-.042a.104.104 0 0 0 .018-.01c.018-.01.032-.022.05-.034.023-.014.047-.028.067-.044.026-.021.046-.046.067-.07a.659.659 0 0 0 .133-.282c.005-.006.009-.01.015-.01L9.7 6.72l.02-.02c.104-.153.069-.277-.11-.385-.368.018-1.107-.064-1.116-.065l-.014-.006c-.876-.366-1.36-1.137-1.36-1.137 0 .005-.02-.022-.02-.022l-.028-.036.005-.003.011-.008.01-.007.01-.008.01-.007h.002l.002-.009a.041.041 0 0 0 .002-.01c0-.004 0-.008.003-.012 0-.003-.015.013.002-.01-.166-1.34 1.593-2.222 1.593-2.222s-2.115.592-2.774 1.361l-.097.007.088.002a.034.034 0 0 1-.009.006l-.008.01c-.003.002-.005.005-.01.007l-.003.003-.014-.005-.04-.012c-1.276-.308-2.322.154-2.322.154-.008 0-.015.003-.02.005l-.02.008-.022.007a.221.221 0 0 1-.018.007 1.402 1.402 0 0 1-.498-.426A9.733 9.733 0 0 1 16.72 2.526a5.431 5.431 0 0 0-.857-.341c-.859-.257-1.883-.405-3.064-.44.518.104.959.234 1.313.395.02.006.043.016.063.02.502.239.838.536.996.887-.509-.094-.97-.059-1.375.099 2.908 1.147 4.287 2.512 4.13 4.091z"/>
    </g>
</svg>
