<?xml version="1.0" encoding="UTF-8"?>
<svg width="21px" height="21px" viewBox="0 0 21 21" version="1.1" xmlns="http://www.w3.org/2000/svg" xmlns:xlink="http://www.w3.org/1999/xlink">
    <!-- Generator: sketchtool 45.1 (43504) - http://www.bohemiancoding.com/sketch -->
    <title>5EEC75A2-5FC1-4958-9E95-04AA7CF413E3</title>
    <desc>Created with sketchtool.</desc>
    <defs>
        <linearGradient x1="81.0950467%" y1="17.4271243%" x2="30.1577694%" y2="50%" id="linearGradient-1">
            <stop stop-color="#FFF454" offset="0%"></stop>
            <stop stop-color="#FF2E18" offset="100%"></stop>
        </linearGradient>
    </defs>
    <g id="Icons" stroke="none" stroke-width="1" fill="none" fill-rule="evenodd">
        <g transform="translate(-521.000000, -90.000000)" id="Mozilla" fill-rule="nonzero" fill="url(#linearGradient-1)">
            <g transform="translate(521.000000, 90.000000)">
                <path d="M20.8215509,7.69649015 C20.7272225,8.41893912 20.6242313,8.79075952 20.5202775,8.81580442 C20.5202775,8.81580442 20.4837012,4.95118408 19.2025675,3.66907798 C19.4210629,5.92311876 19.2054551,5.01475959 19.2054551,5.02535551 C17.4671174,2.02478413 14.2233754,4.93163547e-07 10.5156917,4.93163547e-07 C7.41825503,-0.000962772125 4.64615506,1.40925761 2.80193855,3.61898818 C2.78750053,3.60646574 2.77113744,3.59105349 2.75188674,3.57275145 C2.46312633,3.30881676 2.29757036,2.04115964 2.29757036,2.04115964 C2.29660782,2.03634331 2.29468275,2.03249025 2.29468275,2.02863719 C2.29468275,2.02478413 2.29275768,2.02093107 2.29275768,2.01515148 C2.29275768,2.01322495 2.29275768,2.01033515 2.29083262,2.00744536 C2.28794501,2.00937189 2.28698248,2.01322495 2.28313234,2.01515148 C2.2792822,2.0199678 2.27735713,2.0228576 2.27350699,2.02671066 C2.26965685,2.02960046 2.26773178,2.03538005 2.26388164,2.03826984 C2.2600315,2.04212291 2.2571439,2.04693923 2.25329376,2.04982903 C2.25136869,2.05368209 2.24751855,2.05849842 2.24366841,2.06138821 C2.23981828,2.06524127 2.23693067,2.0700576 2.23404307,2.0729474 C2.23019293,2.07680046 2.22730532,2.08161678 2.22249265,2.08450658 C2.21960505,2.08932291 2.21575491,2.0922127 2.2128673,2.09606576 C2.2099797,2.10088209 2.20612956,2.10473515 2.20227942,2.10858821 C2.19939182,2.11244127 2.19650421,2.11629433 2.19265407,2.12014739 C2.18976647,2.12400046 2.18591633,2.12785352 2.18302873,2.13170658 C2.17917859,2.13555964 2.17629098,2.1394127 2.17244085,2.14326576 C2.16955324,2.14808209 2.16666564,2.15097188 2.16185296,2.15578821 C2.16185296,2.15578821 1.62283353,2.86475146 1.43225165,3.63632696 C1.30519707,4.24800042 1.43032658,3.64403308 1.42840151,3.64692288 C1.42743898,3.65077594 1.42743898,3.65655553 1.42647644,3.66040859 C1.42551391,3.66426165 1.42455137,3.66811471 1.42358884,3.67196777 C1.4226263,3.67196777 1.4226263,3.67196777 1.4226263,3.67196777 C1.26284554,4.3067596 1.18488023,5.06292285 1.19450558,5.94912692 C1.18776784,5.95683304 1.18006756,5.96261263 1.17429235,5.97031875 C1.17429235,5.97031875 0.225233123,7.00004935 0.0673774299,8.1029881 C0.0365763191,8.32164932 0.0173256248,8.4526534 0.00673774299,8.52393504 C0.00673774299,8.52586157 0.00673774299,8.52875136 0.00673774299,8.52971463 C0.00481267356,8.56246565 0.000962534712,8.59521667 0,8.62796769 C0.00288760414,8.62315136 0.00673774299,8.61833503 0.00962534712,8.61351871 C0.0115504165,8.69635952 0.020213229,8.77823707 0.0413889926,8.85337176 L0.611209542,8.3890779 C0.603509265,8.44398402 0.591958848,8.49696361 0.58425857,8.55283299 C0.403302044,9.05469421 0.274322393,9.57871053 0.209832567,10.1354779 C0.0231008331,11.8250452 0.386938954,13.5001635 1.28883398,15.1569798 C1.28883398,15.1569798 1.65074703,15.8081472 1.87116748,16.1173553 C1.89908099,16.1616655 1.92410689,16.2050125 1.954908,16.2493227 L1.96164574,16.2502859 C3.84628871,18.825094 6.86864771,20.4944328 10.2769831,20.4944328 C13.2935669,20.4944328 16.0040647,19.1872818 17.8944828,17.103739 L17.9310592,17.1047022 C18.0561887,16.951543 18.1707303,16.7954941 18.2891221,16.6404084 C18.6038709,16.2502859 18.8945564,15.8380084 19.1525157,15.404539 L19.1284523,15.4064655 C19.9369815,14.079086 20.4673381,12.7112492 20.7079718,11.2991023 C21.0544843,9.90718399 21.0929857,8.70599218 20.8215509,7.69649015 Z M2.7894256,3.63536369 C2.78653799,3.63151063 2.78461292,3.62862084 2.78268785,3.62476778 C2.77980025,3.62091471 2.77691265,3.61513512 2.77498758,3.61128206 C2.77113744,3.607429 2.76921237,3.60357594 2.76632476,3.59972288 C2.76439969,3.59490655 2.76151209,3.59009023 2.75958702,3.5852739 C2.75958702,3.5852739 2.77787518,3.60164941 2.80001348,3.62091471 C2.79712587,3.62669431 2.79327574,3.63054737 2.7894256,3.63536369 Z M17.9262465,7.23701261 C17.7125638,6.90468608 17.4305411,6.68698813 17.0705531,6.57813915 C17.5162067,8.31009014 17.5604833,9.73957583 17.1995328,10.8665962 C16.9521614,10.1152493 16.7250032,9.66444114 16.5219083,9.50646563 C16.803931,11.8260084 16.4218047,13.5425472 15.3793796,14.6608982 C15.5776618,13.9789064 15.6565896,13.4192492 15.6113505,12.979037 C14.3860438,14.8150206 12.9903685,15.7648002 11.4300997,15.8245227 C10.8111899,15.8177798 10.2288564,15.7243431 9.6802116,15.5471023 C9.66962372,15.5471023 9.65711077,15.5451757 9.64652289,15.5451757 C9.59262094,15.527837 9.53968153,15.5076084 9.48674213,15.4873798 C9.48674213,15.4873798 9.48674213,15.4873798 9.48577959,15.4864165 C9.43957792,15.4690778 9.39337626,15.451739 9.34813713,15.4315104 C9.302898,15.4122451 9.2586214,15.3929798 9.2143448,15.371788 C9.17103074,15.3515594 9.12675414,15.3342206 9.08247755,15.3120655 C9.04108855,15.291837 8.99969956,15.2687186 8.95734803,15.2475268 C8.91595904,15.2272982 8.87264498,15.2061063 8.83318106,15.1849145 C8.7927546,15.1637227 8.75425321,15.1386778 8.71575182,15.1155594 C8.67532536,15.0934043 8.63586144,15.0702859 8.59832259,15.0462043 C8.55885866,15.0240492 8.52228234,14.9999676 8.48474349,14.9749227 C8.44720464,14.9518043 8.41159085,14.9257961 8.37501453,14.9007512 C8.33843821,14.8757064 8.30186189,14.8516247 8.26528558,14.8265798 C8.23063433,14.8005717 8.19694561,14.7736002 8.16229436,14.7475921 C8.12860565,14.7215839 8.09299186,14.6955757 8.06026568,14.6686043 C8.02561443,14.6416329 7.99288825,14.6146615 7.96016207,14.5867268 C7.92743589,14.5607186 7.89567225,14.5308574 7.86294607,14.5038859 C7.83118242,14.4769145 7.79845624,14.4499431 7.76669259,14.4200819 C7.73589148,14.3931104 7.70605291,14.362286 7.6752518,14.333388 C7.64445069,14.3064166 7.61364957,14.2765553 7.58477353,14.2476574 C7.56071017,14.224539 7.5366468,14.2023839 7.51354596,14.1792655 C7.52317131,14.1811921 7.53279666,14.1811921 7.54242201,14.1811921 C7.56648537,14.1831186 7.58958621,14.1840819 7.61364957,14.1860084 C7.63578787,14.1869717 7.65985124,14.1879349 7.68487714,14.1888982 C7.70797798,14.1908247 7.73107881,14.191788 7.75417964,14.1927513 C7.77920555,14.1946778 7.80230638,14.1966043 7.82444468,14.1966043 C7.84947058,14.1975676 7.87257141,14.2004574 7.89567225,14.2004574 C7.92069815,14.2004574 7.94572405,14.1985309 7.96978742,14.2004574 C7.99385079,14.2004574 8.01791415,14.1975676 8.04294006,14.1975676 C8.06700342,14.1975676 8.09106679,14.1975676 8.11609269,14.1975676 C8.13919353,14.1966043 8.16421943,14.1975676 8.18924533,14.1966043 C8.2133087,14.1956411 8.23737207,14.1956411 8.26143544,14.1946778 C8.28742387,14.1927513 8.31244978,14.1908247 8.33651314,14.1888982 C8.36153905,14.1869717 8.38849002,14.1840819 8.41351592,14.1831186 C8.43757929,14.1811921 8.46260519,14.1792655 8.48666856,14.1763758 C8.512657,14.1744492 8.5376829,14.173486 8.5627088,14.1715594 C8.58869724,14.1677064 8.61372314,14.1657798 8.63971158,14.16289 C8.66570002,14.1600002 8.69168845,14.1542206 8.71767689,14.1503676 C8.74270279,14.1465145 8.76869123,14.1436247 8.79467967,14.1388084 C8.8206681,14.1359186 8.84569401,14.1311023 8.87168244,14.1282125 C8.89767088,14.1233962 8.92462185,14.1205064 8.94964776,14.11569 C8.97659873,14.1108737 9.0035497,14.1041309 9.02953814,14.0983513 C9.05552657,14.0935349 9.08247755,14.0858288 9.10942852,14.0810125 C9.13734202,14.0742696 9.164293,14.06849 9.19028143,14.0617472 C9.21723241,14.0559676 9.24514591,14.0511513 9.27017181,14.0444084 C9.29808532,14.0367023 9.32503629,14.0299594 9.3529498,14.0222533 C9.37893824,14.0145472 9.40877681,14.0049145 9.43572779,13.9972084 C9.46460383,13.9895023 9.49251733,13.9817962 9.52043084,13.9731268 C9.54738181,13.9644574 9.57625785,13.9577145 9.60320883,13.9490451 C9.63208487,13.9394125 9.66096091,13.9288166 9.68887441,13.9191839 C9.71775046,13.9076247 9.74855157,13.8979921 9.77646507,13.8864329 C9.80534111,13.875837 9.83517969,13.8642778 9.86405573,13.8536819 C9.89196924,13.8421227 9.92180782,13.8334533 9.95068386,13.8209309 C9.98148497,13.8064819 10.0113235,13.7929962 10.0411621,13.7785472 C10.0719632,13.7650615 10.1018018,13.7506125 10.1335655,13.7361635 C10.1643666,13.7217145 10.1942051,13.7091921 10.2250062,13.6947431 C10.2384817,13.687037 10.2538823,13.6822207 10.2663952,13.6745145 L10.3231848,13.6379105 L10.4252135,13.5714451 L10.5272421,13.5059431 L10.6302334,13.4394778 L10.7332246,13.3730125 L10.8352533,13.3075105 L10.9372819,13.2410452 L11.0402732,13.1755431 L11.1423018,13.1090778 L11.243368,13.0426125 L11.3463592,12.9761472 L11.4483879,12.9106452 L11.5504165,12.8441799 L11.5975807,12.8143186 L11.5937306,12.8095023 C11.7669869,12.7449635 11.9306178,12.7488166 12.0884735,12.8239513 C12.4138102,12.7786778 12.5283518,12.6052901 12.4195854,12.3143839 C12.2617297,12.096686 12.0230211,11.8992166 11.7178976,11.7267921 C11.0498985,11.3790534 10.3539859,11.4339595 9.62630966,11.8944003 C8.93520973,12.2845227 8.26817318,12.2700737 7.62038732,11.8549064 C7.19494697,11.563037 6.78394465,11.1719513 6.39026796,10.6816493 L6.23144973,10.4504656 C6.22952466,10.459135 6.22952466,10.4697309 6.22952466,10.4784003 C6.22952466,10.4687677 6.22952466,10.4581717 6.23144973,10.4485391 L6.23144973,10.4437228 C6.23144973,10.4369799 6.23241226,10.4312003 6.23241226,10.4234942 C6.23529987,10.3676248 6.24011254,10.3136819 6.24877535,10.2645554 C6.2584007,10.2009799 6.27476379,10.1422207 6.29305195,10.0863513 C6.32289053,9.99484113 6.36716712,9.91681664 6.42106907,9.85227787 C6.4942217,9.76654726 6.5856625,9.70393501 6.70020413,9.6654044 C6.74351819,9.65191869 6.78971986,9.64132277 6.8378466,9.63361665 C6.80993309,9.63072685 6.78683226,9.62976359 6.75988128,9.62687379 C6.68672865,9.6210942 6.62320136,9.61435134 6.5635242,9.60953502 C6.48748396,9.60279216 6.419144,9.59701257 6.36716712,9.59315951 C6.32866573,9.59026971 6.29593955,9.58834318 6.26995112,9.58737991 C6.23433733,9.58449012 6.19968608,9.58352685 6.16503483,9.58063706 C6.10920782,9.57871053 6.05626841,9.57485747 6.00236647,9.5710044 C5.98696591,9.5710044 5.97734056,9.56907787 5.96194001,9.56811461 C5.90033779,9.56426155 5.84739838,9.55944522 5.80215925,9.55270236 C5.86279893,9.55270236 5.92440115,9.5517391 5.98407831,9.55270236 C6.0726315,9.55751869 6.16118469,9.56233502 6.25070042,9.56811461 C6.35080403,9.57293094 6.54234844,9.58834318 6.81763337,9.61242481 C7.25462413,9.65288195 7.75417964,9.75209828 8.31629991,9.91392685 C8.41062832,9.37449829 8.28646134,8.81002483 7.94572405,8.23206565 C7.94572405,8.22628606 7.94572405,8.222433 7.94572405,8.222433 C7.91588547,8.15500443 7.87353395,8.09142892 7.82155707,8.02977994 C7.8417703,8.05000851 7.861021,8.07023708 7.87642155,8.09142892 C7.90337252,8.128033 7.92358575,8.16463708 7.94379898,8.20316769 C7.95053672,8.21665341 7.96016207,8.22821259 7.96497474,8.24169831 C7.9803753,8.22724933 7.99481332,8.21665341 8.01021388,8.20220443 C8.03235217,8.18197586 8.05352794,8.16271055 8.07662877,8.14248198 C8.0997296,8.12225341 8.12090537,8.1029881 8.1440062,8.0837228 C8.1661445,8.06349423 8.18924533,8.04326566 8.21138363,8.02400035 C8.23255939,8.00377178 8.25566023,7.98354321 8.27683599,7.96331464 C8.29897429,7.9450126 8.32111259,7.92382076 8.34325089,7.90359219 C8.36635172,7.88432688 8.38752748,7.86891464 8.41062832,7.84868607 C8.43276662,7.82942076 8.45490491,7.81304525 8.47800575,7.79570648 C8.50014404,7.77644117 8.52228234,7.7591024 8.54442064,7.74080036 C8.56559641,7.72249832 8.58869724,7.70419627 8.609873,7.6868575 C8.6320113,7.66951872 8.6570372,7.64929015 8.67725043,7.63291464 C8.69938873,7.6146126 8.72248956,7.59823709 8.74462786,7.58089832 C8.76772869,7.56355954 8.78890446,7.55007383 8.81104276,7.53273505 C8.83414359,7.51539628 8.85628189,7.5009473 8.87745765,7.48457179 C8.89959595,7.46819628 8.92269678,7.45182077 8.94579762,7.43544526 C8.96793592,7.42003301 8.99007421,7.40269424 9.01221251,7.38920853 C9.03435081,7.37283302 9.05745164,7.35742077 9.07862741,7.34297179 C9.10269077,7.32755955 9.122904,7.3150371 9.14600484,7.30058812 C9.16910567,7.2871024 9.19028143,7.27361669 9.21338227,7.25916771 C9.23552057,7.24664526 9.25765886,7.23219628 9.27979716,7.2177473 C9.30193546,7.20426159 9.32503629,7.18884934 9.34621206,7.1763269 C9.35198727,7.1734371 9.35872501,7.16958404 9.36353768,7.16573098 C9.38182584,7.15513506 9.39626386,7.14357588 9.41455202,7.13201669 C9.43669032,7.11756771 9.46075369,7.104082 9.48096692,7.08770649 C9.50695535,7.06651465 9.52716858,7.04243302 9.54834435,7.01738812 C9.57433278,6.98656363 9.59550855,6.95381261 9.61475924,6.91720853 C9.64363528,6.86230241 9.66769865,6.80354323 9.68117414,6.73515139 C9.68598681,6.73033507 9.68983695,6.72551874 9.69561216,6.72551874 L9.70042483,6.72070241 C9.7052375,6.71588609 9.71486285,6.70625344 9.71967553,6.70143711 C9.82362927,6.54827793 9.78897802,6.42401671 9.6109091,6.31613099 C9.24225831,6.33443303 8.50303165,6.25159222 8.49436884,6.25062895 C8.48955616,6.24870242 8.48474349,6.24677589 8.47993082,6.24484936 C7.60402423,5.87880855 7.11986927,5.10819632 7.11986927,5.10819632 C7.11986927,5.11301265 7.09965604,5.08604122 7.09965604,5.08604122 L7.07174253,5.0504004 C7.0736676,5.04847387 7.0736676,5.04751061 7.07655521,5.04654734 C7.08136788,5.04365755 7.08329295,5.04173102 7.08810562,5.03884122 C7.09099323,5.03691469 7.09388083,5.03402489 7.09773097,5.03209836 C7.09965604,5.03017183 7.10350618,5.02728204 7.10735632,5.02439224 C7.11120645,5.02150244 7.11505659,5.01957591 7.1179442,5.01668612 L7.11986927,5.01668612 C7.11986927,5.01283306 7.12179434,5.00994326 7.12179434,5.00801673 C7.12275687,5.00512693 7.12371941,5.00031061 7.12371941,4.99742081 C7.12371941,4.99356775 7.12468194,4.98971469 7.12660701,4.98586163 C7.12660701,4.98297183 7.11216899,4.99934734 7.12853208,4.97526571 C6.96297611,3.63536369 8.72152703,2.75397595 8.72152703,2.75397595 C8.72152703,2.75397595 6.60683827,3.34638411 5.94846452,4.11506981 L5.85124852,4.12181266 L5.93883918,4.1237392 C5.93691411,4.12566573 5.9340265,4.12759226 5.93017636,4.12951879 C5.92728876,4.13337185 5.92536369,4.13529838 5.92247609,4.13915144 C5.91862595,4.14204124 5.91670088,4.14493103 5.91285074,4.14685756 C5.91285074,4.14685756 5.90996313,4.14878409 5.9090006,4.14974736 C5.90515046,4.14782083 5.89937525,4.14685756 5.89456258,4.14493103 C5.88108709,4.14107797 5.86857414,4.13722491 5.85509866,4.13337185 C4.57877763,3.82512696 3.53250239,4.28653103 3.53250239,4.28653103 C3.52480212,4.28749429 3.51806437,4.29038409 3.51228917,4.29231062 C3.50362635,4.29520042 3.49785114,4.29809021 3.49207594,4.30001674 C3.48341312,4.30290654 3.47763792,4.30483307 3.47090017,4.3067596 C3.46416243,4.3096494 3.45838722,4.31157593 3.45261201,4.31350246 C3.26684281,4.22391879 3.10128684,4.07942899 2.95498157,3.8877392 C4.7443336,1.69245761 7.4673443,0.288016815 10.5147292,0.288016815 C12.8700516,0.288016815 15.0328671,1.12798415 16.7201905,2.52568208 C16.4526058,2.39178821 16.1676956,2.27715964 15.8625721,2.18468617 C15.0039911,1.9284576 13.9798542,1.78011475 12.7988241,1.7454372 C13.3166677,1.84850658 13.7575086,1.9785474 14.1117214,2.14037597 C14.1328972,2.14615556 14.1550355,2.15578821 14.1752487,2.16060454 C14.6767293,2.39853106 15.0126539,2.69618004 15.1705096,3.0468086 C14.6622913,2.95337187 14.2012371,2.98804942 13.79601,3.14602493 C16.7038274,4.29327389 18.0831396,5.6582208 17.9262465,7.23701261 Z" id="Shape"></path>
            </g>
        </g>
    </g>
</svg>