<svg xmlns="http://www.w3.org/2000/svg" width="21" height="21" viewBox="0 0 21 21">
    <path fill="#B5B8BD" fill-rule="nonzero" d="M20.822 7.69c-.095.723-.198 1.094-.302 1.12 0 0-.036-3.863-1.317-5.144.218 2.253.002 1.345.002 1.356C17.467 2.023 14.223 0 10.515 0a10.027 10.027 0 0 0-7.713 3.616 1.569 1.569 0 0 1-.05-.046c-.289-.264-.454-1.53-.454-1.53l-.003-.013-.002-.013c0-.002 0-.005-.002-.008-.003.002-.004.006-.008.008l-.01.011c-.003.003-.005.009-.01.012l-.01.011a.036.036 0 0 1-.01.012l-.009.011c-.004.004-.007.009-.012.012-.002.005-.006.008-.01.011a.066.066 0 0 1-.01.013.102.102 0 0 1-.01.012l-.009.011-.01.012a.061.061 0 0 1-.011.012s-.54.709-.73 1.48c-.127.61-.002.007-.004.01 0 .004 0 .01-.002.014l-.002.011h-.001c-.16.634-.238 1.39-.228 2.276-.007.007-.015.013-.02.02 0 0-.95 1.03-1.108 2.132-.03.218-.05.35-.06.42v.006C.005 8.556 0 8.59 0 8.621l.01-.014c.002.083.01.165.031.24l.57-.464c-.007.055-.019.108-.027.163a7.011 7.011 0 0 0-.374 1.582c-.187 1.688.177 3.362 1.079 5.017 0 0 .362.651.582.96.028.044.053.088.084.132l.007.001c1.884 2.573 4.907 4.24 8.315 4.24 3.017 0 5.727-1.305 7.617-3.387h.037c.125-.152.24-.308.358-.463.315-.39.606-.802.864-1.235l-.025.002c.809-1.327 1.34-2.693 1.58-4.104.346-1.391.385-2.592.114-3.6zM2.789 3.634a.065.065 0 0 1-.006-.011l-.008-.013-.009-.012-.006-.014.04.035-.01.015zm15.137 3.599a1.51 1.51 0 0 0-.855-.659c.445 1.73.49 3.16.129 4.285-.248-.75-.475-1.2-.678-1.359.282 2.318-.1 4.033-1.143 5.15.199-.68.278-1.24.232-1.68-1.225 1.835-2.62 2.784-4.18 2.844a5.868 5.868 0 0 1-1.75-.278l-.034-.002c-.054-.017-.107-.037-.16-.057l-.001-.001c-.046-.018-.093-.035-.138-.055a3.327 3.327 0 0 1-.134-.06c-.043-.02-.087-.037-.132-.06l-.125-.064a3.734 3.734 0 0 1-.124-.063c-.04-.02-.079-.046-.117-.069a1.983 1.983 0 0 1-.118-.07 1.728 1.728 0 0 1-.113-.07c-.038-.024-.073-.05-.11-.075l-.11-.074-.103-.079c-.033-.026-.069-.052-.102-.079a2.838 2.838 0 0 1-.1-.081c-.033-.026-.064-.056-.097-.083-.032-.027-.065-.054-.096-.084-.031-.027-.06-.058-.092-.086a1.902 1.902 0 0 1-.09-.086l-.071-.068.028.001.072.005a14.468 14.468 0 0 0 .14.007c.025.002.048.004.07.004.025 0 .049.004.072.004.025 0 .05-.002.074 0 .024 0 .048-.003.073-.003h.073l.073-.001.072-.002.076-.006c.025-.002.051-.005.077-.006.024-.002.049-.003.073-.006l.076-.005.077-.009.078-.012.077-.012c.026-.003.05-.008.077-.01l.078-.013.08-.017c.026-.005.052-.013.08-.018l.08-.019c.027-.006.055-.01.08-.017l.083-.022c.026-.008.056-.018.083-.025l.084-.024c.027-.01.056-.016.083-.025l.086-.03c.029-.01.06-.02.087-.032.03-.01.06-.022.088-.033.028-.011.058-.02.087-.033l.09-.042.093-.042c.03-.015.06-.027.091-.042.013-.007.029-.012.041-.02l.057-.036.102-.067.102-.065.103-.067.103-.066.102-.066.102-.066.103-.065.102-.067.101-.066.103-.067.102-.065.102-.067.048-.03-.004-.004a.61.61 0 0 1 .494.014c.326-.045.44-.218.332-.509-.158-.217-.397-.415-.702-.587-.668-.348-1.364-.293-2.092.167-.69.39-1.358.376-2.006-.04a5.834 5.834 0 0 1-1.23-1.171l-.159-.231-.001.027.001-.03v-.004l.001-.02a1.32 1.32 0 0 1 .061-.337.702.702 0 0 1 .128-.234.616.616 0 0 1 .28-.187.992.992 0 0 1 .137-.032L6.76 9.62l-.196-.018a14.593 14.593 0 0 0-.294-.022l-.105-.007c-.056-.002-.109-.005-.163-.01l-.04-.002a1.923 1.923 0 0 1-.16-.016h.182l.267.016c.1.005.291.02.567.044.437.04.936.14 1.498.301.095-.539-.03-1.103-.37-1.68v-.01a.808.808 0 0 0-.124-.192.536.536 0 0 1 .122.173c.007.013.016.025.021.038l.045-.039.067-.06c.023-.02.044-.04.067-.058l.067-.06.066-.06.066-.06c.023-.02.045-.035.068-.055.022-.02.044-.036.067-.053.022-.02.044-.037.066-.055l.066-.054.067-.054.068-.052c.023-.017.044-.03.066-.048l.066-.048.069-.05c.022-.015.044-.032.066-.045.022-.017.045-.032.067-.047l.067-.042.067-.041c.023-.013.045-.027.067-.042l.066-.041a.104.104 0 0 0 .018-.01c.018-.011.032-.023.05-.034.023-.015.047-.028.067-.045.026-.02.046-.045.067-.07a.658.658 0 0 0 .133-.282c.005-.005.009-.01.015-.01l.004-.004.02-.02c.104-.153.069-.277-.11-.385-.368.019-1.107-.064-1.116-.065L8.48 6.24c-.876-.366-1.36-1.136-1.36-1.136 0 .005-.02-.022-.02-.022l-.028-.035c.002-.002.002-.003.005-.004l.011-.008.01-.007.01-.007.01-.008h.002l.002-.009a.04.04 0 0 0 .002-.01c0-.004 0-.008.003-.012 0-.003-.015.014.002-.01-.166-1.34 1.593-2.22 1.593-2.22s-2.115.592-2.774 1.36l-.097.007.088.002a.034.034 0 0 1-.009.005l-.008.01c-.003.003-.005.006-.01.008l-.003.003-.014-.005-.04-.012c-1.276-.308-2.322.153-2.322.153-.008.001-.015.004-.02.006l-.02.008-.022.006a.222.222 0 0 1-.018.007 1.402 1.402 0 0 1-.498-.425A9.736 9.736 0 0 1 16.72 2.524a5.434 5.434 0 0 0-.857-.341c-.859-.256-1.883-.404-3.064-.439.518.103.959.233 1.313.395.02.006.043.015.063.02.502.238.838.535.996.885-.509-.093-.97-.058-1.375.1 2.908 1.146 4.287 2.51 4.13 4.088z"/>
</svg>
