<?xml version="1.0" encoding="UTF-8"?>
<svg width="22px" height="24px" viewBox="0 0 22 24" version="1.1" xmlns="http://www.w3.org/2000/svg" xmlns:xlink="http://www.w3.org/1999/xlink">
    <!-- Generator: sketchtool 45.1 (43504) - http://www.bohemiancoding.com/sketch -->
    <title>5852AE71-9B70-4649-A19C-EC69627A8545</title>
    <desc>Created with sketchtool.</desc>
    <defs></defs>
    <g id="Icons" stroke="none" stroke-width="1" fill="none" fill-rule="evenodd">
        <g transform="translate(-439.000000, -553.000000)" id="Android-Green" fill-rule="nonzero" fill="#0EBAC5">
            <g transform="translate(439.000000, 553.017789)">
                <path d="M1.53208519,7.73009101 L1.46896174,7.73009101 C0.659771779,7.73009101 0,8.36548562 0,9.14029428 L0,15.2800851 C0,16.0579377 0.659771779,16.6912718 1.46896174,16.6912718 L1.53315839,16.6912718 C2.34234836,16.6912718 3.00212013,16.0558772 3.00212013,15.2800851 L3.00212013,9.14024745 C3.00104694,8.36548562 2.34025074,7.73009101 1.53208519,7.73009101 Z" id="Shape"></path>
                <path d="M3.8650455,17.4246824 C3.8650455,18.1378623 4.47218188,18.7186995 5.21507759,18.7186995 L6.65774603,18.7186995 L6.65774603,22.0350866 C6.65774603,22.8139227 7.31961542,23.4473036 8.12670777,23.4473036 L8.18983122,23.4473036 C9.00009438,23.4473036 9.66089058,22.8129393 9.66089058,22.0350866 L9.66089058,18.7186995 L11.6770361,18.7186995 L11.6770361,22.0350866 C11.6770361,22.8139227 12.3410031,23.4473036 13.1480954,23.4473036 L13.2101944,23.4473036 C14.0204088,23.4473036 14.6801806,22.8129393 14.6801806,22.0350866 L14.6801806,18.7186995 L16.1238735,18.7186995 C16.865696,18.7186995 17.4728811,18.1378623 17.4728811,17.4246824 L17.4728811,7.73009101 L3.8650455,7.73009101 L3.8650455,17.4246824 Z" id="Shape"></path>
                <path d="M14.1035328,2.05972855 L15.2494624,0.361658919 C15.3231227,0.254557837 15.2904878,0.108119234 15.1778998,0.0383887964 C15.0663849,-0.0323250795 14.9137959,-0.00300926076 14.84116,0.107088966 L13.6531806,1.86379023 C12.7619399,1.51326483 11.7665016,1.31629624 10.7152571,1.31629624 C9.66298819,1.31629624 8.6696475,1.51326483 7.7763092,1.86379023 L6.59042735,0.107088966 C6.51784026,-0.00300926076 6.36417807,-0.0323250795 6.25159003,0.0383887964 C6.13900199,0.108072404 6.10636707,0.254557837 6.18002735,0.361658919 L7.32698144,2.05972855 C5.25927376,3.03253606 3.8650455,4.86599232 3.8650455,6.96914475 C3.8650455,7.09844343 3.87348473,7.2257284 3.88504598,7.35198311 L17.5464926,7.35198311 C17.5580539,7.2257284 17.5654199,7.09844343 17.5654199,6.96914475 C17.5654687,4.86599232 16.1701672,3.03253606 14.1035328,2.05972855 Z M7.54796231,5.10033155 C7.18492929,5.10033155 6.89028814,4.81948975 6.89028814,4.46999461 C6.89028814,4.12049948 7.18492929,3.84064112 7.54796231,3.84064112 C7.91309294,3.84064112 8.20563648,4.12045265 8.20563648,4.46999461 C8.20563648,4.81953658 7.91099533,5.10033155 7.54796231,5.10033155 Z M13.8815275,5.10033155 C13.5184945,5.10033155 13.2238533,4.81948975 13.2238533,4.46999461 C13.2238533,4.12049948 13.5184945,3.84064112 13.8815275,3.84064112 C14.2455849,3.84064112 14.5381284,4.12045265 14.5381284,4.46999461 C14.5381284,4.81948975 14.2455849,5.10033155 13.8815275,5.10033155 Z" id="Shape"></path>
                <path d="M19.753014,7.73009101 L19.6919882,7.73009101 C18.8827982,7.73009101 18.2209288,8.36548562 18.2209288,9.14029428 L18.2209288,15.2800851 C18.2209288,16.0579377 18.8838714,16.6912718 19.6919882,16.6912718 L19.7540872,16.6912718 C20.5643016,16.6912718 21.2230489,16.0558772 21.2230489,15.2800851 L21.2230489,9.14024745 C21.2230489,8.36548562 20.562204,7.73009101 19.753014,7.73009101 Z" id="Shape"></path>
            </g>
        </g>
    </g>
</svg>