<?xml version="1.0" encoding="UTF-8"?>
<svg width="19px" height="24px" viewBox="0 0 19 24" version="1.1" xmlns="http://www.w3.org/2000/svg" xmlns:xlink="http://www.w3.org/1999/xlink">
    <!-- Generator: sketchtool 45.1 (43504) - http://www.bohemiancoding.com/sketch -->
    <title>A45FB9E2-2756-420F-A48E-79FB56A8D19D</title>
    <desc>Created with sketchtool.</desc>
    <defs></defs>
    <g id="Icons" stroke="none" stroke-width="1" fill="none" fill-rule="evenodd">
        <g transform="translate(-565.000000, -552.000000)" id="Apple-Aquamarine" fill-rule="nonzero" fill="#0EBAC5">
            <g transform="translate(565.000000, 552.000000)">
                <path d="M12.7545952,3.61399094 C13.6493655,2.65608922 14.2545793,1.32616861 14.0889204,0 C12.7998639,0.0460027736 11.2375641,0.756680374 10.3122884,1.71450053 C9.48285188,2.56245237 8.75667689,3.91765819 8.95047581,5.2178075 C10.3888781,5.31511478 11.8583568,4.57034293 12.7545952,3.61399094 Z M15.4998352,12.7725396 C15.4723478,9.79940643 17.8537254,8.37144445 17.9591892,8.30244029 C16.620378,6.28345686 14.5353267,6.00719552 13.7927571,5.97603761 C12.0173274,5.78966113 10.3309668,7.0512301 9.4295898,7.0512301 C8.5318832,7.0512301 7.14331721,6.00050717 5.67082063,6.02872873 C3.7350337,6.06062073 1.95136588,7.18785181 0.957167639,8.97437442 C-1.05374084,12.5683819 0.441757131,17.8923873 2.40127953,20.8076091 C3.35918125,22.2347555 4.49970747,23.8357172 5.99740769,23.777806 C7.44315089,23.7198947 7.98816957,22.8162338 9.7324414,22.8162338 C11.4774473,22.8162338 11.9660229,23.777806 13.4926787,23.7488503 C15.046088,23.7198947 16.0291934,22.2942165 16.9789386,20.8625841 C18.0778665,19.207463 18.5308797,17.6050331 18.5568174,17.5241204 C18.5234572,17.5047894 15.5317272,16.3278851 15.4998352,12.7725396 Z" id="Shape"></path>
            </g>
        </g>
    </g>
</svg>