<svg xmlns="http://www.w3.org/2000/svg" width="20" height="20" viewBox="0 0 20 20">
    <g fill="#FFF" fill-rule="nonzero">
        <path d="M19.582 2.571L17.033.022c-.022-.022-.044-.022-.066 0l-1.714 1.714c-.022.022-.022.044 0 .066l2.55 2.55s.021.022.043.022c.022 0 .022 0 .044-.022l1.714-1.715s.022-.022.022-.044c-.022 0-.022 0-.044-.022zM14.88 2.154c-.023-.022-.045-.022-.067 0L8.418 8.549s-.022.022-.022.044 0 .022.022.044l2.571 2.572s.022.022.044.022.022 0 .044-.022l6.396-6.396c.022-.022.022-.044 0-.066l-2.594-2.593zM7.165 12.484s.022 0 0 0l3.428-.858c.022 0 .022-.022.044-.044 0-.022 0-.044-.022-.044L8.065 8.99c-.021-.022-.021-.022-.043-.022-.022 0-.022.022-.044.044l-.857 3.407c0 .022 0 .044.022.044 0 .022.022.022.022.022z"/>
        <path d="M12.308 18.967c-3.341 0-4.462-2.813-5.649-5.78-1.252-3.1-2.527-6.308-6.44-6.308a.047.047 0 0 0-.043.044v.725c0 .022.022.044.044.044 3.34 0 4.461 2.813 5.648 5.78 1.253 3.1 2.528 6.308 6.44 6.308a.047.047 0 0 0 .044-.044v-.725a.047.047 0 0 0-.044-.044z"/>
    </g>
</svg>
