<svg xmlns="http://www.w3.org/2000/svg" width="20" height="20" viewBox="0 0 20 20">
    <g fill="#4A4A4A" fill-rule="nonzero">
        <path d="M10.044 4.444a1.043 1.043 0 1 1 0 2.09 1.043 1.043 0 1 1 0-2.09zm-1.11 4.112V20h2.222V8.556c1.244-.467 2.155-1.667 2.155-3.067 0-1.4-.889-2.6-2.155-3.067V0H8.933v2.422C7.69 2.89 6.778 4.09 6.778 5.49c0 1.4.889 2.6 2.155 3.067zM3.267 13.467a1.043 1.043 0 1 1 0 2.089 1.043 1.043 0 1 1 0-2.09zM2.222 17.6V20h2.222v-2.444a3.268 3.268 0 0 0 2.09-3.045c0-1.378-.867-2.555-2.09-3.044V0H2.222v11.422C.933 11.867 0 13.067 0 14.512c0 1.444.933 2.666 2.222 3.088zM16.733 11.111a1.043 1.043 0 1 1 0-2.089 1.043 1.043 0 1 1 0 2.09zm1.178-4.089V0H15.69v6.978c-1.289.444-2.222 1.644-2.222 3.089 0 1.444.933 2.644 2.222 3.089V20h2.222v-6.889A3.268 3.268 0 0 0 20 10.067c0-1.378-.867-2.556-2.089-3.045z"/>
    </g>
</svg>
