<svg xmlns="http://www.w3.org/2000/svg" width="23" height="24" viewBox="0 0 23 24">
    <g fill="#FFF" fill-rule="nonzero">
        <path d="M20.946 11.888h-1.095v.273a7.675 7.675 0 0 0-7.31-5.329h-.548v-2.24a2.19 2.19 0 0 0 1.643-2.624 2.194 2.194 0 0 0-2.629-1.64 2.19 2.19 0 0 0-1.643 2.624 2.229 2.229 0 0 0 1.534 1.612v2.268h-.548a7.652 7.652 0 0 0-7.201 5.056H2.054a1.903 1.903 0 0 0-1.917 1.913v2.46c0 1.066.849 1.913 1.917 1.913h.63v1.776a3.292 3.292 0 0 0 3.285 3.28h10.952a3.292 3.292 0 0 0 3.286-3.28v-1.776h.74a1.903 1.903 0 0 0 1.916-1.913V13.8a1.903 1.903 0 0 0-1.917-1.913zM10.405 2.46c0-.602.493-1.094 1.095-1.094s1.095.492 1.095 1.094c0 .6-.493 1.093-1.095 1.093a1.097 1.097 0 0 1-1.095-1.093zM2.054 17.08a.806.806 0 0 1-.822-.82v-2.459c0-.464.356-.82.822-.82h.794c-.11.492-.137 1.012-.137 1.503v2.597h-.657zm12.95 5.057h-3.011v-3.553h1.917c.602 0 1.095.492 1.095 1.093v2.46zm-4.106 0H7.886v-2.46c0-.601.493-1.093 1.095-1.093h1.917v3.553zm8.214-2.187a2.195 2.195 0 0 1-2.19 2.187H16.1v-2.46a2.195 2.195 0 0 0-2.19-2.186H8.98c-1.205 0-2.19.984-2.19 2.186v2.46h-.822a2.195 2.195 0 0 1-2.19-2.187v-5.466a6.55 6.55 0 0 1 6.571-6.559h2.19a6.55 6.55 0 0 1 6.572 6.56v5.465zm2.656-3.69c0 .465-.356.82-.822.82h-.739v-2.596a7.02 7.02 0 0 0-.164-1.503h.876c.466 0 .821.356.821.82v2.46h.028z"/>
        <path d="M8.488 10.932c-1.205 0-2.19.984-2.19 2.186s.985 2.186 2.19 2.186 2.19-.984 2.19-2.186a2.195 2.195 0 0 0-2.19-2.186zm0 3.28a1.097 1.097 0 0 1-1.095-1.094c0-.601.493-1.093 1.095-1.093s1.095.492 1.095 1.093-.493 1.093-1.095 1.093zM14.512 10.932c-1.205 0-2.19.984-2.19 2.186s.985 2.186 2.19 2.186 2.19-.984 2.19-2.186a2.195 2.195 0 0 0-2.19-2.186zm0 3.28a1.097 1.097 0 0 1-1.095-1.094c0-.601.493-1.093 1.095-1.093s1.095.492 1.095 1.093-.493 1.093-1.095 1.093z"/>
    </g>
</svg>
