<svg xmlns="http://www.w3.org/2000/svg" width="20" height="18" viewBox="0 0 20 18">
    <g fill="#FFF" fill-rule="nonzero">
        <path d="M12.99 14.695l-1.243 1.031-1.031-1.031 2.379-2.38-.106 2.38zM12.525 4.21l3.2 3.178-6.168 6.148-3.18-3.18 6.148-6.146zM5.221 6.926L7.6 6.8 5.221 9.2 4.19 8.168l1.032-1.242zm13.053-5.263c.063.884-.063 2.695-1.453 4.526l-3.074-3.073c1.558-1.18 3.095-1.474 4.169-1.474.126 0 .252 0 .358.021zm1.515-.926a.82.82 0 0 0-.61-.61C19.116.104 18.653 0 17.916 0c-1.263 0-3.684.337-5.958 2.463-.084.063-.147.148-.232.21l-2.379 2.4-4.547.253a.886.886 0 0 0-.59.295L2.464 7.705A.81.81 0 0 0 2.505 8.8l2.127 2.126 4.336 4.337 2.127 2.126a.777.777 0 0 0 .59.232c.189 0 .378-.063.526-.19l2.084-1.747a.886.886 0 0 0 .294-.59l.253-4.547 2.38-2.379c3.473-3.431 2.61-7.263 2.567-7.431zM4.821 13.032a.826.826 0 0 0-1.158 0L.421 16.274a.826.826 0 0 0 0 1.158.831.831 0 0 0 .59.252c.21 0 .42-.084.589-.231l3.242-3.242c.295-.337.295-.864-.02-1.18zM5.726 15.095l-1.073 1.073a.826.826 0 0 0 0 1.158.808.808 0 0 0 .59.232c.21 0 .42-.084.589-.232l1.073-1.073a.826.826 0 0 0 0-1.158c-.337-.316-.863-.316-1.179 0z"/>
    </g>
</svg>
