<svg xmlns="http://www.w3.org/2000/svg" width="22" height="22" viewBox="0 0 22 22">
    <path fill="#676767" fill-rule="nonzero" d="M14.47 3.053c2.71 1.232 4.6 3.86 4.928 6.982h1.232C20.137 4.942 15.948 1 10.774 1h-.575l3.12 3.121 1.15-1.068zm-5.175-.657a1.19 1.19 0 0 0-1.724 0L2.314 7.653a1.19 1.19 0 0 0 0 1.725l9.856 9.855a1.19 1.19 0 0 0 1.725 0l5.256-5.256a1.19 1.19 0 0 0 0-1.725L9.295 2.396zm3.778 16.016L3.218 8.556 8.474 3.3l9.856 9.856-5.257 5.256zm-5.995.246c-2.71-1.232-4.6-3.86-4.928-6.98H1c.41 5.091 4.6 9.034 9.774 9.034h.575L8.228 17.59l-1.15 1.067z"/>
</svg>
