<svg xmlns="http://www.w3.org/2000/svg" width="21" height="23" viewBox="0 0 21 23">
    <defs>
        <linearGradient id="a" x1="50%" x2="50%" y1="0%" y2="100%">
            <stop offset="0%" stop-color="#53D2FB"/>
            <stop offset="100%" stop-color="#296CF1"/>
        </linearGradient>
    </defs>
    <path fill="url(#a)" fill-rule="nonzero" d="M10.435 1.381c-.523 0-1.037.039-1.54.113a.67.67 0 0 0-.021-.05c.279-.216.425-.514.361-.81C9.155.254 8.75 0 8.225 0c-.112 0-.226.012-.34.036-.656.138-1.09.618-.989 1.091.062.288.311.504.656.591l.001.063C3.192 3.023 0 7.011 0 11.74c0 5.72 4.672 10.358 10.435 10.358 5.763 0 10.434-4.637 10.434-10.358 0-5.72-4.671-10.358-10.434-10.358zm-3.198-.326c-.06-.274.27-.586.72-.681.09-.02.18-.029.269-.029.349 0 .624.148.67.36.034.162-.068.337-.248.473a.697.697 0 0 0-.997.209c-.222-.053-.38-.175-.414-.332zm8.793 16.238a7.882 7.882 0 0 1-3.376 1.989l-.922-1.484-.234 1.725c-.35.047-.704.07-1.063.07a7.89 7.89 0 0 1-5.596-2.3 7.8 7.8 0 0 1-2.003-3.351l1.495-.915-1.738-.232a7.912 7.912 0 0 1-.071-1.056c0-2.098.823-4.07 2.317-5.554a7.883 7.883 0 0 1 3.377-1.989l.921 1.484.234-1.725c.35-.047.705-.07 1.064-.07 2.113 0 4.1.816 5.595 2.3a7.8 7.8 0 0 1 2.003 3.351l-1.495.915 1.739.232c.046.347.07.7.07 1.056 0 2.098-.822 4.07-2.317 5.554zm-.184-10.925l-4.283 3.23a2.454 2.454 0 0 0-1.03-.274L9.423 7.01l-.067 2.56a2.405 2.405 0 0 0-.759.582l-1.371-.482 1.002 1.047a2.377 2.377 0 0 0-.227.924l-2.33 1.102 2.582.066.025.05-3.254 4.25 4.282-3.23c.318.165.671.26 1.03.274l1.111 2.313.067-2.56c.289-.142.546-.339.758-.582l1.372.483-1.003-1.048c.138-.292.215-.605.227-.924l2.33-1.102-2.581-.066-.026-.05 3.255-4.25zm-5.41 3.225v.1-.1zm-.435.12a2.11 2.11 0 0 1 .703-.029h.002c.19.025.373.076.546.15l-1.555 1.173-1.182 1.544A2.072 2.072 0 0 1 10 9.713zm1.523 3.793a2.093 2.093 0 0 1-1.359.288h-.001a2.092 2.092 0 0 1-.547-.149l1.556-1.173 1.182-1.545a2.061 2.061 0 0 1-.83 2.579z"/>
</svg>
