<?xml version="1.0" encoding="UTF-8"?>
<svg width="21px" height="23px" viewBox="0 0 21 23" version="1.1" xmlns="http://www.w3.org/2000/svg" xmlns:xlink="http://www.w3.org/1999/xlink">
    <!-- Generator: sketchtool 45.1 (43504) - http://www.bohemiancoding.com/sketch -->
    <title>B0480805-42CD-4144-935E-FE769A392A9B</title>
    <desc>Created with sketchtool.</desc>
    <defs></defs>
    <g id="Icons" stroke="none" stroke-width="1" fill="none" fill-rule="evenodd">
        <g transform="translate(-606.000000, -213.000000)" id="Safari" fill-rule="nonzero" fill="#B5B8BD">
            <g transform="translate(606.000000, 213.000000)">
                <path d="M10.4347222,1.38106618 C9.91159481,1.38106618 9.39759779,1.41973603 8.89507896,1.49353675 C8.88855726,1.47666185 8.88151382,1.46013222 8.87373126,1.443991 C9.15255573,1.22815626 9.2987288,0.929759645 9.23533786,0.633650425 C9.15416442,0.254634076 8.74851459,0 8.22590892,0 C8.11330087,0 7.99856241,0.0121274874 7.88504133,0.0360803539 C7.22921903,0.17448908 6.7949172,0.653719043 6.89630792,1.12716579 C6.95791626,1.41498861 7.20700177,1.6307802 7.55204325,1.71808948 C7.5513476,1.73906442 7.55169543,1.76016884 7.55295629,1.78140273 C3.1916337,3.02285175 0,7.01085297 0,11.7390625 C0,17.4596544 4.67179905,22.0970588 10.4347222,22.0970588 C16.1976889,22.0970588 20.8694444,17.4596544 20.8694444,11.7390625 C20.8694444,6.01851376 16.1976889,1.38106618 10.4347222,1.38106618 Z M7.23652334,1.05539351 C7.17769759,0.780777131 7.50782612,0.468656175 7.95734525,0.373837351 C8.04717082,0.354890849 8.1375616,0.345266544 8.22590892,0.345266544 C8.5745156,0.345266544 8.84968792,0.493385892 8.89512244,0.705422708 C8.92981789,0.867482192 8.82838369,1.04227338 8.64760213,1.17809261 C8.49468997,1.0709305 8.29943023,1.02431952 8.10195311,1.0659673 C7.90534556,1.10744244 7.74656387,1.22798362 7.65069486,1.38654728 C7.42930483,1.33367834 7.27008836,1.21210136 7.23652334,1.05539351 Z M16.0300377,17.2932359 C15.0742171,18.2419421 13.916789,18.9176719 12.6537094,19.2817554 L11.732106,17.7977998 L11.4984987,19.5232262 C11.1487181,19.5697509 10.7935897,19.5938764 10.4347222,19.5938764 C8.32108228,19.5938764 6.33396334,18.7768031 4.83940678,17.2932359 C3.88358622,16.3444866 3.20293799,15.1955259 2.83607054,13.9418199 L4.33101841,13.0269067 L2.5927676,12.7950171 C2.54602874,12.4478084 2.52172454,12.0952913 2.52172454,11.7390625 C2.52172454,9.64096403 3.34480673,7.66845626 4.83940678,6.18488908 C5.79522733,5.23609662 6.95269889,4.56045315 8.21569159,4.1962401 L9.13733843,5.68023887 L9.37098925,3.95476931 C9.72072635,3.90837412 10.0758547,3.88424862 10.4347222,3.88424862 C12.5483187,3.88424862 14.5354811,4.70127874 16.0300377,6.18488908 C16.9857713,7.13368154 17.6665065,8.28264229 18.0333304,9.53634827 L16.5383391,10.4512614 L18.2765464,10.6831511 C18.3234157,11.0303166 18.3477199,11.3828337 18.3477199,11.7390625 C18.3477199,13.837161 17.5245942,15.8096687 16.0300377,17.2932359 Z M15.845604,6.36796666 L11.5634983,9.59845308 C11.2451958,9.43319989 10.8922848,9.33816527 10.5327217,9.32383671 L9.4222933,7.01098244 L9.35559803,9.57165177 C9.06681709,9.71269315 8.80986206,9.90966772 8.59742851,10.1532101 L7.22595818,9.67061379 L8.22795238,10.718023 C8.09025753,11.0097301 8.01347536,11.32293 8.00112761,11.6421289 L5.67161935,12.7440903 L8.25286528,12.810252 C8.26112611,12.8268679 8.26969127,12.8432249 8.27829992,12.8595388 L5.02388397,17.1102015 L9.30598962,13.8796719 C9.62433561,14.0448388 9.97715965,14.1398734 10.3367663,14.154202 L11.4471946,16.4670994 L11.5138464,13.9064301 C11.8026708,13.7653455 12.0596259,13.5684141 12.2720159,13.3248286 L13.6435297,13.8075112 L12.6414921,12.7600588 C12.7792304,12.4682223 12.8560995,12.1551518 12.8684038,11.8359529 L15.1978686,10.7339916 L12.6166226,10.6677436 C12.6084488,10.6512139 12.5997966,10.6348569 12.5912315,10.6185431 L15.845604,6.36796666 Z M10.4369396,9.59266987 L10.4369396,9.69266987 L10.4369396,9.59266987 L10.4369396,9.59266987 Z M10.0008552,9.71273631 C10.1470717,9.68187811 10.2931143,9.66703165 10.4368526,9.66703165 C10.5269391,9.66703165 10.6161994,9.67285803 10.7040685,9.68420866 L10.706112,9.6848992 L10.7058511,9.68442445 C10.8957196,9.70911101 11.0792837,9.75995151 11.2521958,9.83323433 L9.69681345,11.0066227 L8.51464638,12.5506547 C8.4629945,12.4299409 8.42182083,12.3028396 8.39334273,12.1697394 C8.15373542,11.0506442 8.87342691,9.95062496 10.0008552,9.71273631 Z M11.5243246,13.5060072 L11.5243246,13.5060072 L11.5243246,13.5060072 C11.3274997,13.6255989 11.1072835,13.7150229 10.8686762,13.7653887 C10.7225032,13.7962469 10.5763736,13.8110933 10.4327657,13.8110933 C10.3425488,13.8110933 10.253245,13.8052238 10.165202,13.7939163 L10.1635064,13.7932258 L10.1637238,13.7936574 C9.97385532,13.7691003 9.79037812,13.7181303 9.61737913,13.644977 L11.172631,12.4715886 L12.3547546,10.9274703 C12.4064499,11.0481841 12.4476671,11.1754149 12.4761017,11.3085151 C12.6650137,12.1905848 12.2574943,13.0606134 11.5243246,13.5060072 Z" id="Shape"></path>
            </g>
        </g>
    </g>
</svg>