<svg xmlns="http://www.w3.org/2000/svg" width="20" height="20" viewBox="0 0 20 20">
    <g fill="#FFF" fill-rule="nonzero">
        <path d="M10.932 16.377v-5.083c0-.043 0-.085.022-.106 0-.043.02-.064.02-.107a.502.502 0 0 1 .128-.191c.064-.064.128-.085.192-.128.021 0 .042-.021.042-.021.064-.021.107-.021.17-.021h5.084c.319 0 .574.255.574.574a.572.572 0 0 1-.574.574h-3.701l6.296 6.296c.234.234.234.595 0 .808-.234.234-.596.234-.809 0l-6.295-6.296v3.701a.572.572 0 0 1-.574.574.572.572 0 0 1-.575-.574zM.383 18.164l6.295-6.296h-3.7a.572.572 0 0 1-.575-.574c0-.32.256-.574.575-.574H8.06c.064 0 .128 0 .17.02.021 0 .043.022.043.022a.502.502 0 0 1 .191.128.382.382 0 0 1 .106.149c0 .02.022.042.022.042a.756.756 0 0 1 .042.213v5.083a.572.572 0 0 1-.574.574.572.572 0 0 1-.574-.574v-3.7L1.19 18.971c-.234.234-.595.234-.808 0-.234-.234-.234-.596 0-.808zM10.954 7.827V2.744c0-.32.255-.575.574-.575.319 0 .574.256.574.575v3.7L18.376.17a.581.581 0 0 1 .405-.17c.148 0 .297.064.404.17.234.234.234.596 0 .808L12.91 7.253h3.701c.32 0 .574.255.574.574a.572.572 0 0 1-.574.574h-5.083c-.064 0-.128 0-.17-.021-.022 0-.043-.021-.043-.021a.502.502 0 0 1-.191-.128.502.502 0 0 1-.128-.191c-.021-.043-.021-.064-.021-.107-.021-.02-.021-.063-.021-.106z"/>
        <path d="M19.334 18.762c0-.064.032-.129.032-.161v-.097c0 .097 0 .194-.032.258zM.383.17A.581.581 0 0 1 .787 0c.149 0 .298.064.404.17l6.253 6.253v-3.7c0-.32.255-.575.574-.575.32 0 .575.255.575.574v5.084a.756.756 0 0 1-.043.212c0 .022-.021.043-.021.043a.646.646 0 0 1-.106.149l-.192.127c-.021 0-.042.022-.042.022-.064.021-.107.021-.17.021H2.934a.572.572 0 0 1-.574-.574c0-.32.255-.575.574-.575h3.7L.384.978C.149.766.149.404.383.17zM19.366.726V.629c0-.064 0-.129-.032-.161.032.064.032.161.032.258z"/>
    </g>
</svg>
