<svg xmlns="http://www.w3.org/2000/svg" width="13" height="13" viewBox="0 0 13 13">
    <g fill="none" fill-rule="evenodd">
        <rect width="13" height="13" fill="#F5A623" rx="2"/>
        <path fill="#FFF" fill-rule="nonzero" d="M3.128 4.089H9.85c.306 0 .528.25.528.528V9.56c0 .306-.25.528-.528.528H3.128A.527.527 0 0 1 2.6 9.56V4.617c0-.278.25-.528.528-.528zm0 .528V9.56H9.85V4.617H3.128zM5.433 3.2h2.111v.528h-2.11V3.2zM4.017 5.672h.694v.695h-.694v-.695zm2.472 2.834a1.423 1.423 0 0 1-1.417-1.417c0-.778.64-1.417 1.417-1.417.778 0 1.417.64 1.417 1.417 0 .805-.64 1.417-1.417 1.417zm0-.528c.5 0 .889-.39.889-.89s-.39-.888-.89-.888-.888.389-.888.889.389.889.889.889z"/>
    </g>
</svg>
