<svg xmlns="http://www.w3.org/2000/svg" width="15" height="15" viewBox="0 0 15 15">
    <g fill="none" fill-rule="evenodd">
        <rect width="15" height="15" fill="#F5A623" rx="2"/>
        <path fill="#FFF" fill-rule="nonzero" d="M3.609 4.718h7.756c.353 0 .61.288.61.609v5.705a.609.609 0 0 1-.61.609H3.61A.609.609 0 0 1 3 11.032V5.327a.63.63 0 0 1 .609-.609zm0 .609v5.705h7.756V5.327H3.61zm2.66-1.635h2.436v.61H6.27v-.61zM4.635 6.545h.8v.801h-.8v-.801zm2.852 3.27a1.642 1.642 0 0 1-1.634-1.636c0-.897.737-1.634 1.634-1.634.898 0 1.635.737 1.635 1.634 0 .93-.737 1.635-1.635 1.635zm0-.61c.577 0 1.026-.449 1.026-1.026 0-.576-.449-1.025-1.026-1.025s-1.025.449-1.025 1.025c0 .577.448 1.026 1.025 1.026z"/>
    </g>
</svg>
