<svg xmlns="http://www.w3.org/2000/svg" width="24" height="24" viewBox="0 0 24 24">
    <g fill="#818A99" fill-rule="nonzero">
        <path d="M2.575 14.364a1.93 1.93 0 0 0 .216 1.551l1.01 1.65c.599.976 1.923 1.31 2.96.748l.442-.244a8.773 8.773 0 0 0 1.61.88v.487c0 1.136.983 2.064 2.176 2.064h2.019c1.194 0 2.177-.928 2.177-2.065v-.486a8.772 8.772 0 0 0 1.61-.88l.444.243c1.036.564 2.36.229 2.958-.748l1.01-1.65c.596-.977.24-2.226-.794-2.791l-.447-.244a7.198 7.198 0 0 0 0-1.758l.447-.244c1.035-.565 1.39-1.814.793-2.792l-1.01-1.65c-.599-.976-1.923-1.31-2.96-.748l-.441.244a8.772 8.772 0 0 0-1.61-.88v-.486c0-1.137-.983-2.065-2.177-2.065h-2.02c-1.192 0-2.176.928-2.176 2.065v.486a8.772 8.772 0 0 0-1.609.88l-.445-.243a2.278 2.278 0 0 0-1.643-.205 2.152 2.152 0 0 0-1.314.952l-1.01 1.65c-.597.978-.242 2.227.793 2.792l.447.244a7.2 7.2 0 0 0 0 1.758l-.447.244a2.05 2.05 0 0 0-1.01 1.24zm1.74-.049l1.321-.72-.092-.477a5.9 5.9 0 0 1 0-2.235l.092-.479-1.322-.72a.648.648 0 0 1-.258-.911l1.01-1.65a.732.732 0 0 1 .966-.244l1.325.722.393-.315a6.614 6.614 0 0 1 2.043-1.119l.475-.163v-1.44c0-.37.339-.691.72-.691h2.02c.382 0 .721.319.721.692v1.44l.477.163a6.633 6.633 0 0 1 2.045 1.118l.39.315 1.326-.722a.732.732 0 0 1 .965.244l1.01 1.65a.648.648 0 0 1-.26.911l-1.32.72.091.478a5.9 5.9 0 0 1 0 2.235l-.092.479 1.322.72a.648.648 0 0 1 .259.911l-1.01 1.65a.732.732 0 0 1-.967.244L16.64 16.4l-.393.315a6.613 6.613 0 0 1-2.043 1.119l-.475.163v1.44c0 .37-.339.691-.721.691h-2.02c-.382 0-.72-.319-.72-.692v-1.44l-.477-.163a6.633 6.633 0 0 1-2.045-1.118l-.39-.315-1.326.722a.732.732 0 0 1-.965-.244l-1.01-1.65a.648.648 0 0 1 .26-.912z"/>
        <path d="M11.996 16.1c2.4 0 4.346-1.836 4.346-4.1 0-2.264-1.946-4.1-4.346-4.1-2.4 0-4.346 1.836-4.346 4.1.003 2.263 1.947 4.097 4.346 4.1zm0-6.823c1.168 0 2.22.664 2.667 1.681.447 1.018.2 2.19-.626 2.968-.826.779-2.067 1.012-3.146.59C9.812 14.094 9.11 13.1 9.11 12c.002-1.503 1.294-2.722 2.887-2.723z"/>
    </g>
</svg>
