<svg xmlns="http://www.w3.org/2000/svg" width="18" height="18" viewBox="0 0 18 18">
    <path fill="#000" fill-rule="nonzero" d="M8.793 4.815a3.976 3.976 0 0 1 3.978 3.978 3.976 3.976 0 0 1-3.978 3.978 3.976 3.976 0 0 1-3.978-3.978 3.976 3.976 0 0 1 3.978-3.978zM7.118 0l-.397 2.198a6.51 6.51 0 0 0-1.11.46L3.769 1.383 1.382 3.769 2.659 5.61a7.298 7.298 0 0 0-.46 1.11L0 7.118v3.35l2.198.398a8.8 8.8 0 0 0 .46 1.11l-1.276 1.842 2.366 2.366 1.842-1.277a6.73 6.73 0 0 0 1.13.46l.398 2.22h3.35l.398-2.199a6.51 6.51 0 0 0 1.11-.46l1.842 1.277 2.366-2.387-1.277-1.842c.188-.356.335-.733.46-1.11l2.22-.398v-3.35l-2.199-.397a7.298 7.298 0 0 0-.46-1.11l1.277-1.842-2.387-2.366-1.842 1.277a7.298 7.298 0 0 0-1.11-.46L10.468 0h-3.35z" opacity=".598"/>
</svg>
