<svg xmlns="http://www.w3.org/2000/svg" width="19" height="19" viewBox="0 0 19 19">
    <path fill="#353535" fill-rule="evenodd" d="M9.052 18.103C4.061 18.103 0 14.043 0 9.051c0-2.53 1.07-4.962 2.937-6.673a.434.434 0 1 1 .588.64A8.203 8.203 0 0 0 .869 9.052c0 4.513 3.671 8.183 8.183 8.183 4.512 0 8.183-3.67 8.183-8.183 0-4.365-3.44-7.933-7.749-8.16v2.262a.434.434 0 1 1-.869 0V.474c0-.007.004-.013.005-.02 0-.007-.004-.013-.004-.02 0-.24.194-.434.434-.434 4.991 0 9.051 4.06 9.051 9.051 0 4.991-4.06 9.052-9.05 9.052zm.656-8.744a.433.433 0 0 1-.615 0L5.747 6.013a.434.434 0 1 1 .615-.614l3.346 3.345c.17.17.17.445 0 .615z"/>
</svg>
