<svg xmlns="http://www.w3.org/2000/svg" width="24" height="24" viewBox="0 0 24 24">
    <g fill="#E2E2E2" fill-rule="nonzero">
        <path d="M11.277 13.759l-.857-2.547 2.6-.875.857 2.547z"/>
        <path d="M12.16.264C5.632.264.34 5.555.34 12.084c0 6.527 5.292 11.82 11.82 11.82 6.527 0 11.82-5.293 11.82-11.82 0-6.529-5.293-11.82-11.82-11.82zm5.999 13.69l-1.265.426.435 1.293a1.191 1.191 0 0 1-2.258.76l-.435-1.293-2.6.876.44 1.307a1.191 1.191 0 0 1-2.26.76l-.44-1.307-1.206.406a1.191 1.191 0 0 1-.76-2.258l1.207-.406-.857-2.547-1.24.417a1.191 1.191 0 1 1-.76-2.258l1.24-.418-.41-1.217a1.191 1.191 0 1 1 2.258-.76l.41 1.217 2.6-.875-.415-1.233a1.191 1.191 0 0 1 2.259-.76l.415 1.233 1.231-.415a1.191 1.191 0 1 1 .76 2.259l-1.231.414.857 2.547 1.265-.426a1.191 1.191 0 0 1 .76 2.259z"/>
    </g>
</svg>
