<svg xmlns="http://www.w3.org/2000/svg" width="11" height="11" viewBox="0 0 11 11">
    <g fill="#4A4A4A" fill-rule="nonzero">
        <path d="M4.092 10.648c.3 0 .543-.243.543-.543V.546c0-.207-.118-.399-.3-.488a.545.545 0 0 0-.572.054L.22 2.772a.539.539 0 0 0-.108.761c.182.243.514.29.76.109l2.68-2.01v8.473a.542.542 0 0 0 .54.543zM6.824 0c-.3 0-.543.246-.543.543v9.469c0 .208.118.39.3.489.08.035.163.054.243.054a.533.533 0 0 0 .326-.109l3.549-2.616a.548.548 0 0 0 .118-.76.548.548 0 0 0-.76-.119l-2.69 1.981V.543c0-.3-.243-.543-.543-.543z"/>
    </g>
</svg>
