<svg xmlns="http://www.w3.org/2000/svg" width="15" height="15" viewBox="0 0 15 15">
    <g fill="none" fill-rule="evenodd">
        <path fill="#232E42" d="M-127 460H73V-732h-200z"/>
        <path fill="#FFF" fill-rule="nonzero" d="M14.325 0c-.675 0-.675 0-.675.676 0 .675 0 .675.675.675s.675 0 .675-.675C15 0 15 0 14.325 0zM.675 13.649c-.675 0-.675 0-.675.675C0 15 0 15 .675 15s.675 0 .675-.676c.015-.675.015-.675-.675-.675zm2.73 0c-.675 0-.675 0-.675.675 0 .676 0 .676.675.676s.675 0 .675-.676c0-.675.015-.675-.675-.675zm-2.73-2.733c-.675 0-.675 0-.675.676 0 .675 0 .675.675.675s.675 0 .675-.675c.015-.676.015-.676-.675-.676zm5.46 2.733c-.675 0-.675 0-.675.675 0 .676 0 .676.675.676s.675 0 .675-.676c.015-.675.015-.675-.675-.675zM.675 8.183C0 8.183 0 8.183 0 8.86s0 .676.675.676.675 0 .675-.676c.015-.676.015-.676-.675-.676zm8.19 5.466c-.675 0-.675 0-.675.675 0 .676 0 .676.675.676s.675 0 .675-.676c0-.675 0-.675-.675-.675zM.675 5.465c-.675 0-.675 0-.675.676s0 .676.675.676.675 0 .675-.676c.015-.676.015-.676-.675-.676zm0-2.732c-.675 0-.675 0-.675.675 0 .676 0 .676.675.676s.675 0 .675-.676c.015-.675.015-.675-.675-.675zm10.92 10.916c-.675 0-.675 0-.675.675 0 .676 0 .676.675.676s.675 0 .675-.676c0-.675 0-.675-.675-.675zM.675 0C0 0 0 0 0 .676c0 .675 0 .675.675.675s.675 0 .675-.675C1.365 0 1.365 0 .675 0zm13.65 13.649c-.675 0-.675 0-.675.675 0 .676 0 .676.675.676S15 15 15 14.31c0-.661 0-.661-.675-.661zM3.405 0C2.73 0 2.73 0 2.73.676c0 .675 0 .675.675.675s.675 0 .675-.675C4.095 0 4.095 0 3.405 0zm10.92 10.916c-.675 0-.675 0-.675.676 0 .675 0 .675.675.675s.675 0 .675-.675c0-.676 0-.676-.675-.676zM6.135 0C5.46 0 5.46 0 5.46.676c0 .675 0 .675.675.675s.675 0 .675-.675C6.825 0 6.825 0 6.135 0zm8.19 8.183c-.675 0-.675 0-.675.676s0 .676.675.676.675 0 .675-.676 0-.676-.675-.676zM8.865 0C8.19 0 8.19 0 8.19.676c0 .675 0 .675.675.675s.675 0 .675-.675C9.54 0 9.54 0 8.865 0zm5.46 5.465c-.675 0-.675 0-.675.676s0 .676.675.676.675 0 .675-.676 0-.676-.675-.676zm0-2.732c-.675 0-.675 0-.675.675 0 .676 0 .676.675.676s.675 0 .675-.676c0-.675 0-.675-.675-.675zM11.595 0c-.675 0-.675 0-.675.676 0 .675 0 .675.675.675s.675 0 .675-.675c0-.676 0-.676-.675-.676zm.675 2.733H2.73v9.55h9.54v-9.55z"/>
    </g>
</svg>
