<svg xmlns="http://www.w3.org/2000/svg" width="25" height="25" viewBox="0 0 25 25">
    <g fill="#676767" fill-rule="nonzero">
        <path d="M23.45 9.482h-1.78a10.33 10.33 0 0 0-2.445-3.888 10.256 10.256 0 0 0-7.273-3.012c-2.298 0-4.413.75-6.127 2.021A10.315 10.315 0 0 0 2.149 9.74c-.062.195-.119.39-.167.59h8.154L8.123 8.353h2.44l2.871 2.823-.042.043L10.562 14H8.124l2.013-1.976H0c.068-.969.248-1.906.534-2.799a11.995 11.995 0 0 1 4.283-5.98A11.93 11.93 0 0 1 11.952.888c3.306 0 6.308 1.344 8.473 3.51a11.982 11.982 0 0 1 3.024 5.084z"/>
        <path d="M24.447 13.864a11.945 11.945 0 0 1-3.479 7.626A11.957 11.957 0 0 1 12.495 25c-2.671 0-5.145-.878-7.135-2.355a12.012 12.012 0 0 1-4.284-5.983L1 16.405h1.784a10.323 10.323 0 0 0 3.586 4.88 10.227 10.227 0 0 0 6.125 2.02c2.843 0 5.41-1.151 7.273-3.015a10.285 10.285 0 0 0 2.7-4.732h-7.593l2.013 1.977h-2.44l-2.871-2.824 2.871-2.823h2.44l-2.013 1.976h9.572z"/>
    </g>
</svg>
