<svg xmlns="http://www.w3.org/2000/svg" width="24" height="24" viewBox="0 0 24 24">
    <g fill="#FFF" fill-rule="nonzero">
        <path d="M23.45 8.595h-1.78a10.33 10.33 0 0 0-2.445-3.888 10.256 10.256 0 0 0-7.273-3.013c-2.298 0-4.413.751-6.127 2.022a10.315 10.315 0 0 0-3.676 5.136c-.062.195-.119.39-.167.59h8.154L8.123 7.465h2.44l2.871 2.824-.042.042-2.83 2.781H8.124l2.013-1.976H0c.068-.968.248-1.906.534-2.798a11.995 11.995 0 0 1 4.283-5.98A11.93 11.93 0 0 1 11.952 0c3.306 0 6.308 1.344 8.473 3.51a11.982 11.982 0 0 1 3.024 5.085z"/>
        <path d="M23.904 12.83a11.945 11.945 0 0 1-3.479 7.626 11.957 11.957 0 0 1-8.473 3.51c-2.671 0-5.144-.878-7.135-2.355a12.012 12.012 0 0 1-4.283-5.983l-.077-.257h1.785a10.323 10.323 0 0 0 3.586 4.88 10.227 10.227 0 0 0 6.124 2.021c2.843 0 5.41-1.152 7.273-3.016a10.285 10.285 0 0 0 2.7-4.732h-7.593l2.013 1.977h-2.44l-2.87-2.824 2.87-2.823h2.44l-2.013 1.976h9.572z"/>
    </g>
</svg>
