<svg xmlns="http://www.w3.org/2000/svg" width="24" height="24" viewBox="0 0 24 24">
    <path fill="#818A99" fill-rule="nonzero" d="M11.984 0a.753.753 0 0 0-.18.033L1.327 4.223A.537.537 0 0 0 1 4.716v14.143a.537.537 0 0 0 .327.483l10.477 4.19a.53.53 0 0 0 .392 0l10.477-4.19a.537.537 0 0 0 .327-.483V4.715a.537.537 0 0 0-.327-.491L12.196.034A.506.506 0 0 0 11.984 0zM12 1.09l9.06 3.625-3.822 1.522-9.06-3.617L12 1.09zM6.762 3.184l9.06 3.625L12 8.333 2.94 4.715l3.822-1.53zm-4.714 2.3l9.428 3.772v13.006l-9.428-3.765V5.484zm19.904 0v13.013l-9.428 3.765V9.257l4.19-1.677V11a.524.524 0 1 0 1.048 0V7.163l4.19-1.678z"/>
</svg>
