<svg xmlns="http://www.w3.org/2000/svg" width="16" height="17" viewBox="0 0 16 17">
    <path fill="#FFF" fill-rule="nonzero" d="M13.556 2.618C10.473-.465 5.527-.524 2.327 2.385v-.64c0-.64-.523-1.163-1.163-1.163S0 1.105 0 1.745v3.491C0 5.876.524 6.4 1.164 6.4h3.49c.64 0 1.164-.524 1.164-1.164 0-.64-.523-1.163-1.163-1.163h-.757c2.27-2.066 5.818-2.008 8 .203a5.77 5.77 0 0 1 1.717 4.102 5.72 5.72 0 0 1-1.717 4.102 5.83 5.83 0 0 1-8.233 0 1.16 1.16 0 0 0-1.658 0 1.16 1.16 0 0 0 0 1.658 8.08 8.08 0 0 0 5.76 2.386 8.08 8.08 0 0 0 5.76-2.386 8.074 8.074 0 0 0 2.386-5.76c0-2.182-.815-4.218-2.357-5.76z"/>
</svg>
