<svg xmlns="http://www.w3.org/2000/svg" width="24" height="24" viewBox="0 0 24 24">
    <g fill="none" fill-rule="nonzero">
        <path fill="#F44336" d="M16 3.945h4.943a12.014 12.014 0 0 0-2.31-1.972H16v1.972zM16 11.836h8a11.742 11.742 0 0 0-.17-1.973H16v1.973zM16 7.89h7.313a11.691 11.691 0 0 0-.923-1.972H16V7.89zM5.37 21.699a12.112 12.112 0 0 0 13.26 0H5.37zM16 13.808H.17c.114.671.287 1.331.517 1.973h22.626c.23-.642.403-1.302.517-1.973H16z"/>
        <path fill="#FFF" d="M18.633 1.973A12.02 12.02 0 0 0 16 .677v1.296h2.633zM16 9.863h7.83a11.627 11.627 0 0 0-.517-1.973H16v1.973zM16 11.836H0c.001.66.058 1.32.17 1.972h23.667c.11-.652.164-1.312.163-1.972h-8zM16 3.945v1.973h6.39a11.88 11.88 0 0 0-1.45-1.973H16zM16 19.726H3.057a12.03 12.03 0 0 0 2.31 1.973h13.26c.853-.558 1.63-1.221 2.313-1.973H16zM16 15.78H.687c.245.685.554 1.345.923 1.973h20.78c.369-.628.678-1.288.923-1.972H16z"/>
        <path fill="#F44336" d="M1.61 17.753c.413.705.9 1.366 1.45 1.973h17.883a11.88 11.88 0 0 0 1.45-1.973H1.61z"/>
        <path fill="#3F51B5" d="M16 .677A12.14 12.14 0 0 0 5.072 2.172C1.892 4.39 0 7.993 0 11.836h16V.677z"/>
        <path fill="#FFF" d="M12.983 7.999c.084-.253.22-.253.304 0l.023.076c.098.272.354.459.647.473h.076c.27 0 .314.128.094.286l-.064.043a.708.708 0 0 0-.246.746l.023.076c.083.253-.027.328-.247.177l-.063-.046a.732.732 0 0 0-.797 0l-.066.033c-.22.158-.334.079-.247-.178l.023-.075a.708.708 0 0 0-.24-.733l-.063-.046c-.22-.158-.177-.286.093-.286h.08a.723.723 0 0 0 .644-.46l.026-.086zM8.223 7.999c.084-.253.22-.253.304 0l.023.076c.098.272.354.459.647.473h.08c.27 0 .313.128.093.286l-.063.043a.708.708 0 0 0-.247.746l.023.076c.084.253-.026.328-.246.177l-.064-.046a.732.732 0 0 0-.796 0l-.064.033c-.22.158-.333.079-.246-.178l.023-.075a.708.708 0 0 0-.247-.733L7.38 8.83c-.22-.158-.177-.286.093-.286h.08a.723.723 0 0 0 .644-.46l.026-.086zM3.463 7.999c.084-.253.22-.253.304 0l.023.076c.098.272.354.459.647.473h.08c.27 0 .313.128.093.286l-.063.043a.708.708 0 0 0-.247.746l.033.066c.084.253-.026.329-.246.177L4 9.817a.732.732 0 0 0-.797 0l-.05.046c-.22.158-.333.079-.246-.178l.023-.075a.708.708 0 0 0-.243-.733l-.064-.046c-.22-.168-.18-.283.094-.283h.076a.723.723 0 0 0 .644-.46l.026-.09zM12.983 2.512c.084-.253.22-.253.304 0l.023.075a.723.723 0 0 0 .643.46h.08c.27 0 .314.129.094.287l-.064.046a.708.708 0 0 0-.246.746l.023.076c.083.253-.027.328-.247.177l-.063-.046a.732.732 0 0 0-.797 0l-.066.046c-.22.158-.334.08-.247-.177l.023-.076a.708.708 0 0 0-.246-.746l-.064-.046c-.22-.158-.176-.286.094-.286h.08a.723.723 0 0 0 .643-.46l.033-.076zM8.223 2.512c.084-.253.22-.253.304 0l.023.075a.723.723 0 0 0 .643.46h.08c.27 0 .314.129.094.287l-.064.046a.708.708 0 0 0-.246.746l.023.076c.083.253-.027.328-.247.177l-.063-.046a.732.732 0 0 0-.797 0l-.063.046c-.22.158-.333.08-.247-.177l.024-.076a.708.708 0 0 0-.247-.746l-.063-.046c-.22-.158-.177-.286.093-.286h.08a.723.723 0 0 0 .643-.46l.03-.076zM10.5 5.122c.083-.253.22-.253.303 0l.024.076a.723.723 0 0 0 .643.46h.08c.27 0 .313.128.093.286l-.063.046a.708.708 0 0 0-.247.746l.024.076c.083.253-.027.329-.247.178l-.063-.046a.732.732 0 0 0-.797 0l-.063.046c-.22.157-.334.078-.247-.178l.023-.076a.708.708 0 0 0-.246-.746l-.05-.046c-.22-.158-.177-.286.093-.286h.073a.723.723 0 0 0 .644-.46l.023-.076zM5.743 5.122c.084-.253.22-.253.304 0l.023.076a.723.723 0 0 0 .643.46h.08c.27 0 .314.128.094.286l-.064.046a.708.708 0 0 0-.246.746l.023.076c.083.253-.027.329-.247.178l-.063-.046a.732.732 0 0 0-.797 0l-.063.046c-.22.157-.333.078-.247-.178l.024-.076a.708.708 0 0 0-.247-.746l-.063-.046c-.22-.158-.177-.286.093-.286h.08a.723.723 0 0 0 .643-.46l.03-.076z"/>
    </g>
</svg>
