<svg xmlns="http://www.w3.org/2000/svg" width="17" height="17" viewBox="0 0 17 17">
    <g fill="none" fill-rule="evenodd" transform="translate(1 1)">
        <path fill="#0EBAC5" fill-rule="nonzero" d="M11.594 14.084l-.031-.062c0-.496-.093-.96-.28-1.518-.154-.433-.402-.805-.835-1.208-.372-.433-.899-.681-1.24-.836a3.923 3.923 0 0 0-1.455-.279c-.465 0-.93.093-1.487.28-.433.154-.805.402-1.208.835-.433.372-.681.899-.836 1.24-.186.464-.279.96-.279 1.455v.062l-.062.031H3.2v-.062c0-.65.124-1.239.372-1.765.278-.62.588-1.084.99-1.518.341-.372.713-.65 1.147-.805.31-.186.62-.28.96-.372-.031-.031.434.03.434.03h-.031c.216.063.464.094.743.094.31 0 .62-.062.867-.186h.062c.403.093.805.248 1.115.403.31.155.774.433 1.146.805.496.526.805.991.991 1.518.248.495.372 1.084.372 1.734v.062l-.093.062h-.681z"/>
        <path fill="#0EBAC5" fill-rule="nonzero" d="M7.761 10.022A2.274 2.274 0 0 1 5.5 7.761 2.274 2.274 0 0 1 7.761 5.5a2.274 2.274 0 0 1 2.261 2.261 2.274 2.274 0 0 1-2.261 2.261zm0-3.81c-.867 0-1.58.713-1.58 1.58 0 .867.713 1.58 1.58 1.58.867 0 1.58-.713 1.58-1.58 0-.867-.713-1.58-1.58-1.58z"/>
        <circle cx="7.65" cy="7.65" r="7.65" stroke="#0EBAC5" stroke-width=".78"/>
    </g>
</svg>
