<svg xmlns="http://www.w3.org/2000/svg" width="18" height="12" viewBox="0 0 18 12">
    <path fill="#000" fill-rule="nonzero" d="M17.054 1.786a1.232 1.232 0 0 0-1.292.122L13.45 3.662v-.581l-.004-.077a2.312 2.312 0 0 0-2.302-2.06H2.593A2.319 2.319 0 0 0 .276 3.258v6.194a2.319 2.319 0 0 0 2.317 2.316h8.551a2.312 2.312 0 0 0 2.302-2.06v-.662l2.316 1.758a1.231 1.231 0 0 0 1.976-.981V2.889c0-.468-.265-.896-.684-1.103zM12.04 9.587a.904.904 0 0 1-.896.772H2.593a.907.907 0 0 1-.907-.906V3.259c0-.5.407-.906.907-.906h8.551c.451 0 .83.33.896.772v6.462z" opacity=".6"/>
</svg>
