<svg xmlns="http://www.w3.org/2000/svg" width="25" height="16" viewBox="0 0 25 16">
    <path fill="#FFF" fill-rule="nonzero" d="M23.302 1.17a1.71 1.71 0 0 0-1.794.17l-3.212 2.436V2.97l-.005-.107A3.211 3.211 0 0 0 15.094 0H3.217A3.22 3.22 0 0 0 0 3.217v8.602a3.22 3.22 0 0 0 3.217 3.217h11.877a3.211 3.211 0 0 0 3.197-2.862v-.918l3.217 2.44a1.71 1.71 0 0 0 2.744-1.362V2.702a1.71 1.71 0 0 0-.95-1.532zm-6.964 10.836a1.255 1.255 0 0 1-1.244 1.072H3.217a1.26 1.26 0 0 1-1.259-1.259V3.217a1.26 1.26 0 0 1 1.26-1.259h11.876c.627 0 1.154.458 1.244 1.072v8.976z"/>
</svg>
