<svg xmlns="http://www.w3.org/2000/svg" width="24" height="24" viewBox="0 0 24 24">
    <g fill="#818A99" fill-rule="nonzero">
        <path d="M22.471 3H1.53A.529.529 0 0 0 1 3.529v16.359c0 .292.237.529.529.529H22.47a.529.529 0 0 0 .529-.53V3.53A.529.529 0 0 0 22.471 3zm-.529 1.058V6.49H2.058V4.058h19.884zM2.058 19.359V7.549h19.884v11.81H2.058z"/>
        <path d="M11.51 8c-4.137 0-7.234 3.194-7.364 3.33a.529.529 0 0 0 0 .73c.13.136 3.227 3.33 7.364 3.33 4.137 0 7.233-3.194 7.363-3.33a.529.529 0 0 0 0-.73C18.743 11.194 15.647 8 11.51 8zm0 5.82a2.12 2.12 0 0 1-2.11-2.125 2.12 2.12 0 0 1 2.11-2.124 2.12 2.12 0 0 1 2.11 2.124 2.12 2.12 0 0 1-2.11 2.125zM9.325 9.395a3.18 3.18 0 0 0-.983 2.3c0 .905.378 1.721.983 2.301-1.88-.568-3.354-1.713-4.022-2.3.668-.588 2.142-1.733 4.022-2.301zm4.37 4.601a3.18 3.18 0 0 0 .983-2.3c0-.905-.378-1.721-.983-2.301 1.879.568 3.353 1.713 4.022 2.3-.669.588-2.143 1.733-4.022 2.301z"/>
    </g>
</svg>
