<?xml version="1.0" encoding="UTF-8"?>
<svg width="24px" height="24px" viewBox="0 0 24 24" version="1.1" xmlns="http://www.w3.org/2000/svg" xmlns:xlink="http://www.w3.org/1999/xlink">
    <!-- Generator: sketchtool 45.1 (43504) - http://www.bohemiancoding.com/sketch -->
    <title>09E20266-4A03-429B-BED5-0A0D3C5D460E</title>
    <desc>Created with sketchtool.</desc>
    <defs></defs>
    <g id="Prompts" stroke="none" stroke-width="1" fill="none" fill-rule="evenodd">
        <g id="Dashboard-URL-and-tooltips" transform="translate(-578.000000, -12.000000)" fill-rule="nonzero" fill="#FFFFFF">
            <g id="Group-2" transform="translate(578.000000, 12.000000)">
                <g id="Warning">
                    <path d="M11.7084823,0 C5.25260527,0 0,5.25215495 0,11.7084823 C0,18.1648096 5.25260527,23.4169645 11.7084823,23.4169645 C18.1643593,23.4169645 23.4169645,18.1648096 23.4169645,11.7084823 C23.4169645,5.25215495 18.1643593,0 11.7084823,0 Z M11.7084823,22.516312 C5.74931512,22.516312 0.900652482,17.6676494 0.900652482,11.7084823 C0.900652482,5.74931512 5.74931512,0.900652482 11.7084823,0.900652482 C17.6676494,0.900652482 22.516312,5.74931512 22.516312,11.7084823 C22.516312,17.6676494 17.6676494,22.516312 11.7084823,22.516312 Z" id="Shape"></path>
                    <path d="M11.7084823,4.50326241 C11.4599022,4.50326241 11.258156,4.70455824 11.258156,4.95358865 L11.258156,14.8607659 C11.258156,15.1097964 11.4599022,15.3110922 11.7084823,15.3110922 C11.9570623,15.3110922 12.1588085,15.1097964 12.1588085,14.8607659 L12.1588085,4.95358865 C12.1588085,4.70455824 11.9570623,4.50326241 11.7084823,4.50326241 Z" id="Shape"></path>
                    <path d="M11.7084823,16.6620709 C11.4599022,16.6620709 11.258156,16.8633667 11.258156,17.1123972 L11.258156,18.0130496 C11.258156,18.26208 11.4599022,18.4633759 11.7084823,18.4633759 C11.9570623,18.4633759 12.1588085,18.26208 12.1588085,18.0130496 L12.1588085,17.1123972 C12.1588085,16.8633667 11.9570623,16.6620709 11.7084823,16.6620709 Z" id="Shape"></path>
                </g>
            </g>
        </g>
    </g>
</svg>