<svg xmlns="http://www.w3.org/2000/svg" width="22" height="22" viewBox="0 0 22 22">
    <g fill="none" fill-rule="evenodd">
        <circle cx="11" cy="11" r="11" fill="#B5B8BD"/>
        <path fill="#FFF" fill-rule="nonzero" d="M14.983 4.392c-.247.723-.505 1.445-.753 2.167-.753 2.178-1.517 4.356-2.27 6.533-.031.104-.073.207-.104.3 0 .01-.01.02-.01.03.01-.103-.031.063 0 0-.031.424 0 .868 0 1.29v2.942c0 .165-.145.31-.31.31h-1.341a.296.296 0 0 1-.217-.083h-.01v-.01a.296.296 0 0 1-.083-.217V14.59c0-.392.02-.795 0-1.187v-.031c.02.072 0-.093 0 0v-.02c-.02-.083-.062-.155-.093-.238-.31-.836-.63-1.693-.939-2.539-.62-1.64-1.228-3.292-1.837-4.933-.072-.196.113-.392.3-.392H8.77a.31.31 0 0 1 .3.227c.609 1.713 1.218 3.426 1.826 5.13.723-2.127 1.445-4.253 2.168-6.39A.291.291 0 0 1 13.353 4h1.331c.196 0 .372.196.3.392z"/>
    </g>
</svg>
